<svg id="undraw_My_location_re_r52x" xmlns="http://www.w3.org/2000/svg" width="134.576" height="119" viewBox="0 0 134.576 119">
  <path id="Path_6460" data-name="Path 6460" d="M734.726,648.3l-.179-.067a10.452,10.452,0,0,1-6.722-12.466l.042-.187.179.067a10.453,10.453,0,0,1,6.722,12.467Zm-5.68-5.147a11.71,11.71,0,0,0,5.434,4.691,10.08,10.08,0,0,0-6.368-11.809A11.726,11.726,0,0,0,729.046,643.154Z" transform="translate(-606.111 -529.459)" fill="#3f3d56"/>
  <path id="Path_6461" data-name="Path 6461" d="M706.112,667.8a11.946,11.946,0,0,1,4.57,5.928,10.286,10.286,0,0,1-11.948-7.188A11.947,11.947,0,0,1,706.112,667.8Z" transform="translate(-582.068 -555.144)" fill="#46ce04"/>
  <path id="Path_6462" data-name="Path 6462" d="M423.128,335.452a2.09,2.09,0,0,1,3.082-.48,1.992,1.992,0,0,1,.2.193l8.217-1.2.457-6.179a1.792,1.792,0,1,1,3.575.264c0,.011,0,.022,0,.033l-.8,8.67,0,.019a1.624,1.624,0,0,1-1.569,1.139l-9.665-.167a1.962,1.962,0,0,1-.121.166,2.091,2.091,0,0,1-3.117.128q-.062-.064-.118-.132A2.1,2.1,0,0,1,423.128,335.452Z" transform="translate(-352.201 -271.676)" fill="#ffb7b7"/>
  <path id="Path_6463" data-name="Path 6463" d="M506.751,652.38h-2.344l-1.115-9.039h3.459Z" transform="translate(-419.259 -535.924)" fill="#ffb7b7"/>
  <path id="Path_6464" data-name="Path 6464" d="M489.885,695.932h-7.556v-.1a2.941,2.941,0,0,1,2.941-2.941h4.616Z" transform="translate(-401.795 -577.204)" fill="#2f2e41"/>
  <path id="Path_6465" data-name="Path 6465" d="M591.191,642.07l-2.218.756-3.974-8.2,3.274-1.117Z" transform="translate(-487.324 -527.739)" fill="#ffb7b7"/>
  <path id="Path_6466" data-name="Path 6466" d="M593.237,682.135l-7.152,2.439-.031-.09a2.941,2.941,0,0,1,1.834-3.733h0l4.368-1.49Z" transform="translate(-488.07 -565.846)" fill="#2f2e41"/>
  <path id="Path_6467" data-name="Path 6467" d="M501.224,221.479s-2.333-.77-3.832,2.311a59.611,59.611,0,0,1-3.832,6.471l1.333.308s.333-2.157,1.166-2.465l-.333,2.773s10,3.235,14.495-.308l-.167-1.078a1,1,0,0,1,.666,1.078l.5-.462a8.442,8.442,0,0,0-2-2.157,5.218,5.218,0,0,1-1.439-3.31,3.858,3.858,0,0,0-1-2.181A4.528,4.528,0,0,0,501.224,221.479Z" transform="translate(-411.151 -184.057)" fill="#2f2e41"/>
  <ellipse id="Ellipse_27" data-name="Ellipse 27" cx="4.26" cy="4.26" rx="4.26" ry="4.26" transform="translate(86.672 39.667)" fill="#ffb7b7"/>
  <path id="Path_6468" data-name="Path 6468" d="M497.708,308.325l-.775-.258s-1.549.646-1.549,1.807-.258,5.809-.258,5.809l3.486.387Z" transform="translate(-412.456 -256.629)" fill="#cbcbcb"/>
  <path id="Path_6469" data-name="Path 6469" d="M582.533,349.211a2.014,2.014,0,0,1-.046-2.629l-2.174-18.211a1.623,1.623,0,1,1,3.242-.167v.018l1.945,18.23a1.95,1.95,0,0,1,.194.228,2.028,2.028,0,0,1-.455,2.831l-.068.047h0a2.03,2.03,0,0,1-1.715.248,2,2,0,0,1-.924-.6Z" transform="translate(-483.417 -272.122)" fill="#ffb7b7"/>
  <path id="Path_6470" data-name="Path 6470" d="M581.7,313.751l3.486-.387s-.258-4.647-.258-5.809-1.549-1.807-1.549-1.807l-.775.258Z" transform="translate(-484.571 -254.698)" fill="#cbcbcb"/>
  <path id="Path_6471" data-name="Path 6471" d="M497.58,392.293a27.858,27.858,0,0,0-2.969,12.013c0,6.584-.258,36.793-.258,36.793s3.873,1.807,6.2-.387l2.065-33.436,8.133,32.791s3.873.775,5.68-.516l-3.486-22.85s-1.42-21.43-5.293-22.979S497.58,392.293,497.58,392.293Z" transform="translate(-411.812 -326.791)" fill="#2f2e41"/>
  <path id="Path_6472" data-name="Path 6472" d="M516.272,237.933a11.666,11.666,0,0,0,3.536-3.844s2.768,3.075,4.459,3.229.154-3.69.154-3.69l-3.075-.769-2.921.308-2.306,1.538Z" transform="translate(-429.943 -193.979)" fill="#2f2e41"/>
  <path id="Path_6473" data-name="Path 6473" d="M516.666,301.072s.123-.066-7.229.2l-3.077.847-.409.113s.387,7.746,1.42,9.166.775,2.195.516,2.324-.9-.129-.516.516.9.258.387.646-.775,1.807-.775,1.807l11.361,1.549a34.461,34.461,0,0,1,1.42-7.617,33.267,33.267,0,0,0,1.291-3.615l-.774-5.164Z" transform="translate(-421.474 -250.797)" fill="#cbcbcb"/>
  <path id="Path_6474" data-name="Path 6474" d="M144.977,28.255h-.653v-17.9A10.358,10.358,0,0,0,133.965,0H96.049A10.358,10.358,0,0,0,85.691,10.358v98.183A10.358,10.358,0,0,0,96.049,118.9h37.917a10.358,10.358,0,0,0,10.358-10.358h0V40.994h.653Z" transform="translate(-71.383 0)" fill="#3f3d56"/>
  <path id="Path_6475" data-name="Path 6475" d="M156.381,23.878v98.038a7.729,7.729,0,0,1-7.722,7.736H110.547a7.73,7.73,0,0,1-7.736-7.725V23.878a7.73,7.73,0,0,1,7.725-7.736h4.633a3.675,3.675,0,0,0,3.4,5.062h21.723a3.675,3.675,0,0,0,3.4-5.062h4.949a7.729,7.729,0,0,1,7.736,7.722v.014Z" transform="translate(-85.645 -13.447)" fill="#fff"/>
  <path id="Path_6476" data-name="Path 6476" d="M156.381,38.383V35.044h-5.054V16.62a7.712,7.712,0,0,0-2.682-.478h-.658v18.9H130.456V21.205h-3.339V35.044H112.423v-18.9h-1.877a7.662,7.662,0,0,0-1.463.139V35.044h-6.273v3.339h6.273v7.724l-6.273,3.621v3.857l6.273-3.621V72.945h-6.273v3.339h6.273v33.227h-6.273v3.339h6.273v16.663a7.665,7.665,0,0,0,1.463.139h1.877v-16.8h14.693v16.8h3.339v-16.8h17.532v16.8h.658a7.711,7.711,0,0,0,2.682-.478V112.851h5.054v-3.339h-5.054V94.985h5.009V91.646h-5.009V76.285h5.054V72.945h-5.054V52.575h5.054V49.236h-5.054V38.383Zm-33.918,0h0l-10.04,5.8h0v-5.8Zm-10.04,9.653h0l14.693-8.484V72.945H112.423Zm0,61.476V76.285h14.693v33.227Zm35.564,0H130.456V94.985h17.532Zm0-17.866H130.456V76.285h17.532Zm0-18.7H130.456V52.575h17.532Zm0-23.709H130.456V38.383h17.532Z" transform="translate(-85.645 -13.448)" fill="#e5e5e5"/>
  <path id="Path_6477" data-name="Path 6477" d="M248.784,118.914c0,10.6-19.2,34.228-19.2,34.228s-19.2-23.624-19.2-34.228a19.2,19.2,0,0,1,38.4,0Z" transform="translate(-175.254 -83.064)" fill="#46ce04"/>
  <path id="Path_6478" data-name="Path 6478" d="M280.09,153.067a11.354,11.354,0,1,1-11.354-11.354h0a11.349,11.349,0,0,1,11.354,11.343Z" transform="translate(-214.408 -118.052)" fill="#fff"/>
  <ellipse id="Ellipse_28" data-name="Ellipse 28" cx="4.23" cy="4.23" rx="4.23" ry="4.23" transform="translate(50.059 31.037)" fill="#46ce04"/>
  <path id="Path_6479" data-name="Path 6479" d="M301.042,246.127a11.366,11.366,0,0,1-12.2,0,6.345,6.345,0,0,1,12.2,0Z" transform="translate(-240.615 -201.198)" fill="#46ce04"/>
  <ellipse id="Ellipse_29" data-name="Ellipse 29" cx="5.176" cy="5.176" rx="5.176" ry="5.176" transform="translate(49.152 73.585)" fill="#46ce04"/>
  <path id="Path_6480" data-name="Path 6480" d="M134.409,711.047H.167a.167.167,0,1,1,0-.334H134.409a.167.167,0,1,1,0,.334Z" transform="translate(0 -592.047)" fill="#cbcbcb"/>
</svg>
