<svg xmlns="http://www.w3.org/2000/svg" xmlns:xlink="http://www.w3.org/1999/xlink" width="129.756" height="97" viewBox="0 0 129.756 97">
  <defs>
    <linearGradient id="linear-gradient" x1="0.5" y1="1" x2="0.5" gradientUnits="objectBoundingBox">
      <stop offset="0" stop-color="gray" stop-opacity="0.251"/>
      <stop offset="0.54" stop-color="gray" stop-opacity="0.122"/>
      <stop offset="1" stop-color="gray" stop-opacity="0.102"/>
    </linearGradient>
    <linearGradient id="linear-gradient-2" x1="0.5" y1="1" x2="0.5" xlink:href="#linear-gradient"/>
  </defs>
  <g id="undraw_security_o890" transform="translate(-23.653 -21.621)">
    <ellipse id="Ellipse_36" data-name="Ellipse 36" cx="21.32" cy="2.07" rx="21.32" ry="2.07" transform="translate(110.769 114.48)" fill="#46ce04" opacity="0.1"/>
    <rect id="Rectangle_99" data-name="Rectangle 99" width="129.44" height="73.323" rx="12.49" transform="translate(23.653 21.621)" fill="url(#linear-gradient)"/>
    <rect id="Rectangle_100" data-name="Rectangle 100" width="129.044" height="72.049" rx="12.49" transform="translate(23.859 22.652)" fill="#fff"/>
    <rect id="Rectangle_101" data-name="Rectangle 101" width="129.044" height="72.049" rx="12.49" transform="translate(23.859 22.652)" fill="#fff"/>
    <rect id="Rectangle_102" data-name="Rectangle 102" width="129.044" height="72.049" rx="12.49" transform="translate(23.859 22.652)" fill="#fff" opacity="0.04"/>
    <path id="Path_6546" data-name="Path 6546" d="M273.008,149.29H145.275a.655.655,0,0,0-.655.655v2.769H273.658v-2.769a.655.655,0,0,0-.65-.655Z" transform="translate(-120.761 -127.465)" fill="#5a5773"/>
    <g id="buttons" transform="translate(25.551 22.652)">
      <circle id="Ellipse_37" data-name="Ellipse 37" cx="0.885" cy="0.885" r="0.885" fill="#fff"/>
      <circle id="Ellipse_38" data-name="Ellipse 38" cx="0.885" cy="0.885" r="0.885" transform="translate(2.384)" fill="#fff"/>
      <circle id="Ellipse_39" data-name="Ellipse 39" cx="0.885" cy="0.885" r="0.885" transform="translate(4.767)" fill="#fff"/>
    </g>
    <rect id="Rectangle_103" data-name="Rectangle 103" width="34.63" height="2.939" transform="translate(34.487 31.689)" fill="#46ce04" opacity="0.2"/>
    <rect id="Rectangle_104" data-name="Rectangle 104" width="107.787" height="45.215" transform="translate(34.487 43.475)" fill="#5a5773" opacity="0.1"/>
    <path id="Path_6547" data-name="Path 6547" d="M549.65,259.782H547.8V256.2a7.371,7.371,0,1,0-14.742-.1v3.684h-1.841a3.081,3.081,0,0,0-3.071,3.071v14.74a3.081,3.081,0,0,0,3.071,3.071H549.65a3.08,3.08,0,0,0,3.07-3.071v-14.74A3.08,3.08,0,0,0,549.65,259.782Zm-8.138,9.582v5.279a1.1,1.1,0,0,1-1.021,1.106,1.078,1.078,0,0,1-1.128-1.076v-5.312a2.452,2.452,0,1,1,2.149,0Zm4.146-9.582H535.212V256.1a5.221,5.221,0,1,1,10.441,0Z" transform="translate(-452.052 -213.358)" opacity="0.1"/>
    <path id="Path_6548" data-name="Path 6548" d="M549.65,257.782H547.8V254.2a7.371,7.371,0,1,0-14.742-.1v3.684h-1.841a3.081,3.081,0,0,0-3.071,3.071v14.74a3.081,3.081,0,0,0,3.071,3.071H549.65a3.08,3.08,0,0,0,3.07-3.071v-14.74A3.08,3.08,0,0,0,549.65,257.782Zm-8.138,9.582v5.279a1.1,1.1,0,0,1-1.021,1.106,1.077,1.077,0,0,1-1.128-1.076v-5.312a2.452,2.452,0,1,1,2.149,0Zm4.146-9.582H535.212V254.1a5.221,5.221,0,1,1,10.441,0Z" transform="translate(-452.052 -211.631)" fill="#46ce04"/>
    <rect id="Rectangle_105" data-name="Rectangle 105" width="10.91" height="2.576" transform="translate(131.364 39.123)" fill="#5a5773" opacity="0.1"/>
    <path id="Path_6549" data-name="Path 6549" d="M873.75,365.562a3.878,3.878,0,0,0-.365-1.037l-1.634-2.441h.01a4.114,4.114,0,0,1,0-1.828c.257-.6-.918-2.083-.918-2.083a.878.878,0,0,1,.23-.829c.373-.458-.23-1.8-.23-1.8s-.286-2.8-.315-3.227-.259-2.8-.259-2.8l-.545-5.025-.97-13.317-.018-.249c.12-.059.184-.1.184-.1l-.193-7.363.167-.151c1.463-1.324,4.837-4.388,4.8-4.455s-.409-5.117-.452-6.381a7.6,7.6,0,0,0-.58-2.612c-.084-.168-.328-1.272-.429-1.739-.027-.128-.045-.208-.045-.208a7.686,7.686,0,0,1-.9-2.742c.086-.857.258-1.5-1.851-1.8a8.171,8.171,0,0,1-2.825-.985,8.036,8.036,0,0,0-2.024-1.013s-.591-1.09-1-.721a5.716,5.716,0,0,1-.388-1.214l-.012-.076a4.014,4.014,0,0,0,1.585-2.269c.014-.052.025-.1.037-.157a.441.441,0,0,0,.127.023c.358,0,.579-.4.914-.526.136-.053.3-.061.409-.169a.4.4,0,0,0,.09-.3.632.632,0,0,0,0-.112q0-.02,0-.04v.014c-.091-.5-.475-.936-.433-1.44.041-.474.458-.891.424-1.353a.758.758,0,0,0-.01-.109v.016a1.165,1.165,0,0,0-.273-.482,1.546,1.546,0,0,0-.561-.471c-.189-.083-.409-.1-.586-.2-.52-.283-.519-1.022-.828-1.526a1.349,1.349,0,0,0-1.263-.625c-.387.038-.737.244-1.12.311a2.928,2.928,0,0,1-1.551-.272,4.271,4.271,0,0,0-1.531-.409,1.3,1.3,0,0,0-1.27.775c-.086.272-.044.565-.109.842a1.833,1.833,0,0,1-.987,1.079c-.272.151-.6.324-.681.61v-.022a.421.421,0,0,0-.014.161,1.717,1.717,0,0,0,.173.569,1.57,1.57,0,0,1-.008,1.1c-.1.259-.272.486-.37.744a1.466,1.466,0,0,0-.09.373v-.022a1.539,1.539,0,0,0,0,.174,1.228,1.228,0,0,0,.136.572,1.027,1.027,0,0,0,.612.513c.272.063.443-.2.73-.136a1.144,1.144,0,0,1,.151.048c.01.061.019.123.03.183a4,4,0,0,0,1.381,2.339.892.892,0,0,0,.015.1h0a9.137,9.137,0,0,1,.113,1.643s-.429-.628-1.017.584a12.357,12.357,0,0,1-2.065.986c-.53.1-2.411.756-2.411.756a1.66,1.66,0,0,1-.975.315c-.587,0-1.075,1.284-1,1.983s-.042,1.214-.588,1.242-.248,1.136-.244,1.155l-.05.238c-.106.488-.338,1.534-.42,1.7a7.629,7.629,0,0,0-.582,2.612c-.042,1.264-.409,6.3-.451,6.381-.029.056,2.283,2.168,3.908,3.645l.236.212-.748,6.985a1.865,1.865,0,0,0,.768,1.362c0,.082,0,.165-.008.251a8.721,8.721,0,0,1-.229,2.065,13.915,13.915,0,0,0-.172,2.912,43.79,43.79,0,0,1-.516,5.539,3.78,3.78,0,0,0-.259,1.907c.086.223-.287,6.223-.287,6.223l-.286,2.685s.086,2.569-.173,2.626-.4,1.828-.4,1.828-.917,1.256-.516,1.712-.059.658-.1.771-.874.545-.272,2.141a.459.459,0,0,0,.019.046c-.564.783-2.351,3.31-2.242,3.694a1.012,1.012,0,0,0,.477.572,2.787,2.787,0,0,0,2.291,0c1.907-.614,1.771-1.057,1.771-1.057a.809.809,0,0,1,.8-.771,2.257,2.257,0,0,0,1.377-.785l-.093-.345-.127-.477c.015-.136.112-.375.545-.507.661-.2.488-1.456.488-1.456s-.057-1.313.229-1.485.173-2.341.173-2.341a16.1,16.1,0,0,1,.774-2.627c.458-1.057,1.005-7.336,1.005-7.336a28.955,28.955,0,0,1,.716-3.969,22.468,22.468,0,0,0,.661-3.368s2.123-4.112,2.151-5.026c0,0,.272-.857.545.086s1.038,3.2,1.038,3.2l.745,2.769.889,4.139.575,3.484a5.417,5.417,0,0,0,.136,1.771c.223.458.545,1.512.373,1.712s.343,1.143.488,1.342,0,4.425,0,4.425.659,3.6,1.606,4.222a1.159,1.159,0,0,0,.21.109c-.014.39-.027.911-.01,1.184a.457.457,0,0,0,.03.178,4.98,4.98,0,0,0,1.263.885c.2,0,.917.5.947.742a7.943,7.943,0,0,0,2.389,1.3c.293.03,1.712.285,1.907-.114a.661.661,0,0,0,.04-.369Zm-5.077-51.448.147.127s.151,1.178.259,1.531a2.958,2.958,0,0,1-.022,1.039,2.4,2.4,0,0,0,.151.749c.128.257-.259.817-.259.817h-.345l-.108-4.41Zm-10.247-13.168v-.026a.091.091,0,0,0,0,.026Zm-5.292,16.978a.5.5,0,0,1-.022-.364,1.093,1.093,0,0,0,.072-.2,3.12,3.12,0,0,0,.079-.545.032.032,0,0,0,0-.007,2.884,2.884,0,0,1-.021-1.032c.1-.335.258-1.531.258-1.531l.1-.083.227-.2a1.615,1.615,0,0,1,.016-.195,15.161,15.161,0,0,1,.025,2.236,3.315,3.315,0,0,0-.43,1.269,5.211,5.211,0,0,1-.089,1.06A2.185,2.185,0,0,1,853.135,317.924Z" transform="translate(-727.763 -248.388)" fill="url(#linear-gradient-2)"/>
    <path id="Path_6550" data-name="Path 6550" d="M931.13,355.2V356.9l-3.476,1.748s-3.452-2.088-2.6-2.919c.545-.526.44-1.97.293-2.962h0c-.086-.577-.185-1-.185-1s6.2-1.771,5.263-.426a2.114,2.114,0,0,0-.233,1.607A7.3,7.3,0,0,0,931.13,355.2Z" transform="translate(-794.779 -301.554)" fill="#c37098"/>
    <path id="Path_6551" data-name="Path 6551" d="M863.439,436.7l-.448,5.519s-.672-.609-1.541-1.4c-1.611-1.47-3.9-3.571-3.872-3.627.042-.086.409-5.093.448-6.351a7.6,7.6,0,0,1,.575-2.6,16.1,16.1,0,0,0,.409-1.69c.033-.151.053-.249.053-.249l.752-.3s3.133,3.5,3.133,3.559-.214,2.749-.214,2.749l-.222.193-.1.083s-.15,1.173-.256,1.524a2.736,2.736,0,0,0,.02,1.027h0a3.168,3.168,0,0,1-.078.545,1.145,1.145,0,0,1-.072.2.5.5,0,0,0,.022.362,2.187,2.187,0,0,0,.234.448Z" transform="translate(-736.611 -366.486)" fill="#3f3d56"/>
    <path id="Path_6552" data-name="Path 6552" d="M1002.857,437.218c.033.067-3.308,3.116-4.756,4.433l-.656.6L997,436.728h1.151s.384-.554.256-.81a2.371,2.371,0,0,1-.148-.745,2.971,2.971,0,0,0,.02-1.034c-.106-.353-.256-1.524-.256-1.524l-.146-.125-.173-.151s-.214-2.685-.214-2.749,3.133-3.559,3.133-3.559l.746.3s.016.08.044.208c.1.464.342,1.564.425,1.731a7.6,7.6,0,0,1,.575,2.6C1002.448,432.125,1002.813,437.132,1002.857,437.218Z" transform="translate(-857.042 -366.512)" fill="#3f3d56"/>
    <path id="Path_6553" data-name="Path 6553" d="M998.955,822.646c-.2.4-1.606.136-1.9.115a7.685,7.685,0,0,1-2.367-1.294c-.029-.241-.738-.738-.937-.738a4.976,4.976,0,0,1-1.25-.881.432.432,0,0,1-.029-.177c-.03-.467.029-1.67.029-1.67l4.12.227,2,3.011a3.881,3.881,0,0,1,.362,1.031A.682.682,0,0,1,998.955,822.646Z" transform="translate(-853.127 -705.093)" fill="#3f3d56"/>
    <path id="Path_6554" data-name="Path 6554" d="M998.955,822.646c-.2.4-1.606.136-1.9.115a7.685,7.685,0,0,1-2.367-1.294c-.029-.241-.738-.738-.937-.738a4.976,4.976,0,0,1-1.25-.881.432.432,0,0,1-.029-.177c-.03-.467.029-1.67.029-1.67l4.12.227,2,3.011a3.881,3.881,0,0,1,.362,1.031A.682.682,0,0,1,998.955,822.646Z" transform="translate(-853.127 -705.093)" opacity="0.1"/>
    <path id="Path_6555" data-name="Path 6555" d="M999.006,833.236c-.2.4-1.606.136-1.9.114a7.683,7.683,0,0,1-2.367-1.294c-.029-.241-.738-.738-.937-.738a4.981,4.981,0,0,1-1.25-.881.432.432,0,0,1-.029-.177l1.335.844a5.634,5.634,0,0,1,1.08.868,7.735,7.735,0,0,0,2.168,1.008,10.191,10.191,0,0,1,1.93-.12A.68.68,0,0,1,999.006,833.236Z" transform="translate(-853.178 -715.683)" opacity="0.1"/>
    <path id="Path_6556" data-name="Path 6556" d="M854.917,821.1a2.228,2.228,0,0,1-1.362.78.8.8,0,0,0-.8.767s.136.441-1.748,1.053a2.752,2.752,0,0,1-2.269,0,1.014,1.014,0,0,1-.473-.569c-.128-.454,2.386-3.906,2.386-3.906l2.288-.136,1.635.738.251.936Z" transform="translate(-728.566 -706.035)" fill="#3f3d56"/>
    <path id="Path_6557" data-name="Path 6557" d="M854.917,821.1a2.228,2.228,0,0,1-1.362.78.8.8,0,0,0-.8.767s.136.441-1.748,1.053a2.752,2.752,0,0,1-2.269,0,1.014,1.014,0,0,1-.473-.569c-.128-.454,2.386-3.906,2.386-3.906l2.288-.136,1.635.738.251.936Z" transform="translate(-728.566 -706.035)" opacity="0.1"/>
    <path id="Path_6558" data-name="Path 6558" d="M857.944,831.683a2.229,2.229,0,0,1-1.362.78.8.8,0,0,0-.8.767s.136.441-1.748,1.053a2.753,2.753,0,0,1-2.269,0,13.953,13.953,0,0,0,3.677-1.023c.285-.285.64-1.067.881-1.08a9.473,9.473,0,0,0,1.53-.84Z" transform="translate(-731.593 -716.616)" fill="none"/>
    <path id="Path_6559" data-name="Path 6559" d="M857.944,831.683a2.229,2.229,0,0,1-1.362.78.8.8,0,0,0-.8.767s.136.441-1.748,1.053a2.753,2.753,0,0,1-2.269,0,13.953,13.953,0,0,0,3.677-1.023c.285-.285.64-1.067.881-1.08a9.473,9.473,0,0,0,1.53-.84Z" transform="translate(-731.593 -716.616)" opacity="0.1"/>
    <path id="Path_6560" data-name="Path 6560" d="M885,604.974a4.1,4.1,0,0,0,0,1.818s-3.814.2-4.745-.426-1.591-4.206-1.591-4.206.136-4.2,0-4.4-.654-1.136-.484-1.335-.136-1.25-.369-1.705a5.1,5.1,0,0,1-.136-1.761l-.569-3.468-.88-4.119-.748-2.757s-.767-2.245-1.027-3.182-.535-.086-.535-.086c-.027.91-2.13,5-2.13,5a22.5,22.5,0,0,1-.654,3.352,29.081,29.081,0,0,0-.711,3.95s-.545,6.25-.994,7.3a16.109,16.109,0,0,0-.759,2.614s.115,2.16-.17,2.33-.238,1.478-.238,1.478.17,1.249-.484,1.449-.545.625-.545.625-3.637.6-4.233-1,.227-2.016.272-2.13.5-.312.1-.768.511-1.7.511-1.7.143-1.761.4-1.818.172-2.614.172-2.614l.283-2.671s.371-5.967.285-6.195a3.786,3.786,0,0,1,.256-1.907,43.609,43.609,0,0,0,.511-5.514,13.847,13.847,0,0,1,.17-2.9,8.443,8.443,0,0,0,.226-2.055c.025-.617.03-1.128.03-1.128l3.182-1.193,4.086-1.306,3.438,1.648,5.03.966.063.868.96,13.254.545,5s.227,2.358.256,2.784.312,3.212.312,3.212.6,1.335.227,1.79a.863.863,0,0,0-.227.817S885.259,604.377,885,604.974Z" transform="translate(-741.108 -493.075)" fill="#3f3d56"/>
    <path id="Path_6561" data-name="Path 6561" d="M931.983,351.336a2.114,2.114,0,0,0-.233,1.607,4,4,0,0,1-4.845-.181h0c-.086-.577-.185-1-.185-1S932.92,349.993,931.983,351.336Z" transform="translate(-796.335 -301.556)" opacity="0.1"/>
    <path id="Path_6562" data-name="Path 6562" d="M925.382,316.461a3.972,3.972,0,1,1-1.163-2.828A3.991,3.991,0,0,1,925.382,316.461Z" transform="translate(-788.284 -268.419)" fill="#c37098"/>
    <path id="Path_6563" data-name="Path 6563" d="M892.868,349.962l-1.308,23.284-7.1-1.491-1.407-9.334,1.393-12.531,1.049.135,1.85.236,1.832.113,1.986-.221Z" transform="translate(-754.94 -295.289)" opacity="0.1"/>
    <path id="Path_6564" data-name="Path 6564" d="M892.868,351.221l-1.308,23.284-7.1-1.491-1.407-9.334,1.393-12.529,1.049.133,1.85.236,1.832.113,1.986-.221Z" transform="translate(-754.94 -296.377)" fill="#46ce04"/>
    <path id="Path_6565" data-name="Path 6565" d="M939.23,396.3l2.558.086-.719,1.007a9.028,9.028,0,0,0,.392,2.617c.342.583.241,9.589.241,9.589l-.681,1.293-1.165-1.449.015-11.891Z" transform="translate(-807.141 -340.831)" fill="#3f3d56"/>
    <path id="Path_6566" data-name="Path 6566" d="M939.23,396.3l2.558.086-.719,1.007a9.028,9.028,0,0,0,.392,2.617c.342.583.241,9.589.241,9.589l-.681,1.293-1.165-1.449.015-11.891Z" transform="translate(-807.141 -340.831)" opacity="0.1"/>
    <path id="Path_6567" data-name="Path 6567" d="M926.536,336.86,924.15,339.5l1.363,1.421,2.26-2.2Z" transform="translate(-790.442 -284.033)" opacity="0.1"/>
    <path id="Path_6568" data-name="Path 6568" d="M926.536,335.61l-2.386,2.642,1.363,1.421,2.26-2.2Z" transform="translate(-790.442 -282.954)" fill="#46ce04"/>
    <path id="Path_6569" data-name="Path 6569" d="M899.984,340l-2.416-2.415-.227,1.264,1.109,2.77Z" transform="translate(-767.283 -284.664)" opacity="0.1"/>
    <path id="Path_6570" data-name="Path 6570" d="M900.612,338.755,898.2,336.34l-.227,1.264,1.109,2.77Z" transform="translate(-767.827 -283.584)" fill="#46ce04"/>
    <path id="Path_6571" data-name="Path 6571" d="M903.6,576.061a11.794,11.794,0,0,1-3.678,1.064c-2.344.3-3.878-2.685-3.878-2.685l-.895,1.165c-.285,1.237-4.617,1.549-6.379,1.08a2.818,2.818,0,0,1-1.011-.478c.025-.617.03-1.128.03-1.128l3.182-1.193,4.086-1.306,3.438,1.648,5.03.966Z" transform="translate(-762.682 -493.101)" opacity="0.1"/>
    <path id="Path_6572" data-name="Path 6572" d="M919.82,391.262l-1.306,23.283-7.1-1.491L910,403.721l1.392-12.531,1.049.136a12.753,12.753,0,0,1-.154,1.362c-.17.8.881,6.451.881,6.451s2,6.34,2.9,5.426,2.179-5.74,2.179-5.74c.868-1.79.015-6.81-.049-6.911a2.02,2.02,0,0,1-.082-.456Z" transform="translate(-781.892 -336.417)" opacity="0.1"/>
    <path id="Path_6573" data-name="Path 6573" d="M998.039,507.216l.06,2.281-.656.6L997,504.57h.981Z" transform="translate(-857.042 -434.354)" opacity="0.1"/>
    <path id="Path_6574" data-name="Path 6574" d="M890.715,493.1h0a3.179,3.179,0,0,1-.078.545c0-.05,0-.079-.011-.083C890.586,493.551,890.635,493.342,890.715,493.1Z" transform="translate(-765.145 -424.446)" opacity="0.1"/>
    <path id="Path_6575" data-name="Path 6575" d="M888,501.728l-.448,5.519s-.672-.609-1.541-1.4l.1-.978s.366-2.4.5-3.588a2.2,2.2,0,0,0,.234.448Z" transform="translate(-761.17 -431.512)" opacity="0.1"/>
    <path id="Path_6576" data-name="Path 6576" d="M876.253,374.969s-.425-.625-1.008.582a12.186,12.186,0,0,1-2.043.981c-.523.1-2.384.753-2.384.753a1.645,1.645,0,0,1-.966.312c-.583,0-1.067,1.279-1,1.975s-.042,1.208-.582,1.237-.242,1.15-.242,1.15l3.594,4.12s.227,3.793.114,3.908a3.366,3.366,0,0,0-.426,1.264c.1.038-.545,4.233-.545,4.233l-.866,8.141a2.059,2.059,0,0,0,1.762,1.832c1.763.47,6.1.159,6.377-1.077l.895-1.166s1.534,2.984,3.878,2.686a11.274,11.274,0,0,0,3.837-1.151l-.256-9.756-.17-7.032,3.66-6.013a7.654,7.654,0,0,1-.895-2.724c.086-.849.255-1.491-1.833-1.79a8.018,8.018,0,0,1-2.8-.981,8,8,0,0,0-2-1.008s-.586-1.09-.993-.716a13.393,13.393,0,0,1,.375,1.771,5.862,5.862,0,0,0,.128,1.378c.064.108.917,5.121.049,6.911,0,0-1.274,4.826-2.179,5.74s-2.9-5.426-2.9-5.426-1.051-5.655-.881-6.451S876.253,374.969,876.253,374.969Z" transform="translate(-745.571 -322.128)" fill="#3f3d56"/>
    <circle id="Ellipse_40" data-name="Ellipse 40" cx="0.625" cy="0.625" r="0.625" transform="translate(133.097 70.216)" fill="#3f3d56"/>
    <circle id="Ellipse_41" data-name="Ellipse 41" cx="0.625" cy="0.625" r="0.625" transform="translate(133.097 73.163)" fill="#3f3d56"/>
    <circle id="Ellipse_42" data-name="Ellipse 42" cx="0.625" cy="0.625" r="0.625" transform="translate(133.097 70.216)" opacity="0.1"/>
    <circle id="Ellipse_43" data-name="Ellipse 43" cx="0.625" cy="0.625" r="0.625" transform="translate(133.097 73.163)" opacity="0.1"/>
    <path id="Path_6577" data-name="Path 6577" d="M992.47,804.34a16.7,16.7,0,0,1,2.821.4A16.7,16.7,0,0,1,992.47,804.34Z" transform="translate(-853.129 -693.294)" stroke="#46ce04" stroke-miterlimit="10" stroke-width="1" opacity="0.1"/>
    <path id="Path_6578" data-name="Path 6578" d="M880.3,789.53s.545.681.313.994S880.3,789.53,880.3,789.53Z" transform="translate(-756.237 -680.501)" stroke="#46ce04" stroke-miterlimit="10" stroke-width="1" opacity="0.1"/>
    <path id="Path_6579" data-name="Path 6579" d="M885.1,805.224s.994-.654,1.392-.219S885.1,805.224,885.1,805.224Z" transform="translate(-760.384 -693.739)" stroke="#46ce04" stroke-miterlimit="10" stroke-width="1" opacity="0.1"/>
    <path id="Path_6580" data-name="Path 6580" d="M925.4,316.469a3.971,3.971,0,0,1-.128,1.009.454.454,0,0,1-.264-.444c.018-.162.125-.311.1-.471-.034-.248-.334-.349-.492-.545a1.267,1.267,0,0,1-.136-.888c.016-.306-.061-.681-.349-.786-.086-.031-.18-.034-.263-.069-.226-.1-.3-.376-.447-.569a1.177,1.177,0,0,0-1.362-.2,6.465,6.465,0,0,1-.613.256.8.8,0,0,1-.641-.048c-.09-.057-.162-.136-.255-.193a.879.879,0,0,0-.978.238,3.377,3.377,0,0,1-.817.7c-.151.068-.338.109-.409.256a.538.538,0,0,0-.044.255,7.615,7.615,0,0,1-.048,1.587c-.071.334-.305.712-.644.671a.637.637,0,0,1-.124-.031,3.991,3.991,0,1,1,7.914-.738Z" transform="translate(-788.301 -268.428)" opacity="0.1"/>
    <path id="Path_6581" data-name="Path 6581" d="M907.217,299.306c.1.023.2.076.3.09.339.041.573-.338.644-.672a7.34,7.34,0,0,0,.049-1.587.518.518,0,0,1,.042-.255c.078-.147.264-.188.409-.256a3.526,3.526,0,0,0,.817-.7.87.87,0,0,1,.977-.238c.091.054.165.136.255.193a.817.817,0,0,0,.643.048c.211-.063.409-.173.612-.256a1.183,1.183,0,0,1,1.362.195c.151.195.221.474.447.569.083.035.177.039.263.071.287.108.361.479.349.786a1.322,1.322,0,0,0,.136.888c.158.193.458.294.492.545.022.161-.084.311-.1.471a.452.452,0,0,0,.427.482c.354,0,.573-.4.9-.523a1.075,1.075,0,0,0,.409-.169.451.451,0,0,0,.084-.369c-.067-.522-.485-.975-.44-1.5.042-.5.507-.938.409-1.431a1.16,1.16,0,0,0-.272-.486,1.573,1.573,0,0,0-.556-.47,5.742,5.742,0,0,1-.582-.2c-.515-.282-.513-1.017-.817-1.519a1.334,1.334,0,0,0-1.242-.618c-.383.038-.73.241-1.109.309a2.874,2.874,0,0,1-1.536-.272,4.2,4.2,0,0,0-1.516-.409,1.293,1.293,0,0,0-1.259.771c-.084.272-.042.564-.108.838a1.828,1.828,0,0,1-.978,1.073c-.3.166-.656.357-.692.7a1.434,1.434,0,0,0,.17.617,1.57,1.57,0,0,1-.008,1.09c-.1.257-.266.484-.366.74a1.327,1.327,0,0,0,.036,1.09,1.016,1.016,0,0,0,.622.511C906.762,299.509,906.931,299.243,907.217,299.306Z" transform="translate(-778.209 -250.754)" fill="#3f3d56"/>
    <g id="Group_36" data-name="Group 36" transform="translate(127.526 44.495)" opacity="0.1">
      <path id="Path_6582" data-name="Path 6582" d="M908.162,335.009c-.071.334-.307.712-.646.672-.1-.014-.2-.067-.3-.09-.285-.063-.453.2-.722.136a1.019,1.019,0,0,1-.624-.511,1.182,1.182,0,0,1-.127-.445,1.246,1.246,0,0,0,.127.7,1.019,1.019,0,0,0,.624.511c.272.063.437-.2.722-.136a3.1,3.1,0,0,0,.3.089c.339.042.575-.336.646-.67a3.934,3.934,0,0,0,.065-.895,3.362,3.362,0,0,1-.065.639Z" transform="translate(-905.733 -331.831)"/>
      <path id="Path_6583" data-name="Path 6583" d="M908.2,317.1a1.565,1.565,0,0,0-.09-.658,3.481,3.481,0,0,1-.156-.43.586.586,0,0,0-.014.069,1.46,1.46,0,0,0,.17.617,1.554,1.554,0,0,1,.09.4Z" transform="translate(-907.638 -315.971)"/>
      <path id="Path_6584" data-name="Path 6584" d="M983.643,318.73c-.064.387-.377.751-.409,1.158a.987.987,0,0,0,0,.21C983.3,319.622,983.723,319.2,983.643,318.73Z" transform="translate(-972.673 -318.321)"/>
      <path id="Path_6585" data-name="Path 6585" d="M974.9,339.83a.318.318,0,0,1-.078.153c-.1.108-.272.116-.409.169-.331.127-.545.527-.9.523a.456.456,0,0,1-.409-.316.686.686,0,0,0-.019.09.452.452,0,0,0,.426.481c.356,0,.573-.4.9-.522.136-.053.3-.061.409-.169a.451.451,0,0,0,.085-.369C974.906,339.853,974.9,339.842,974.9,339.83Z" transform="translate(-963.91 -336.547)"/>
      <path id="Path_6586" data-name="Path 6586" d="M969.808,332.712c-.034-.248-.334-.349-.492-.545a.747.747,0,0,1-.15-.447,1.006,1.006,0,0,0,.15.7c.157.191.395.272.471.469A.436.436,0,0,0,969.808,332.712Z" transform="translate(-960.524 -329.542)"/>
      <path id="Path_6587" data-name="Path 6587" d="M930.032,317.471c.011-.306-.062-.681-.35-.786-.084-.031-.178-.035-.262-.069-.226-.1-.3-.376-.447-.569a1.18,1.18,0,0,0-1.362-.2c-.2.083-.4.193-.612.256a.8.8,0,0,1-.641-.048c-.09-.057-.163-.136-.255-.193a.878.878,0,0,0-.978.238,3.385,3.385,0,0,1-.817.7c-.153.068-.338.109-.417.256a.536.536,0,0,0-.042.255v.159a.386.386,0,0,1,.039-.158c.079-.147.264-.188.417-.256a3.528,3.528,0,0,0,.817-.7.872.872,0,0,1,.978-.238c.091.054.165.136.255.192a.8.8,0,0,0,.642.048,6.292,6.292,0,0,0,.612-.255,1.18,1.18,0,0,1,1.362.195c.15.193.221.474.447.569.083.035.177.039.261.071a.654.654,0,0,1,.346.607Z" transform="translate(-921.38 -315.727)"/>
    </g>
    <g id="Group_37" data-name="Group 37" transform="translate(129.469 46.594)" opacity="0.1">
      <path id="Path_6588" data-name="Path 6588" d="M920,332.214a1.045,1.045,0,0,1,.787-.977,3.269,3.269,0,0,1,1.836.083c1.293.428-.163,1.967-.163,1.967s-.968.953-1.871.287a1.415,1.415,0,0,1-.527-.817A2.085,2.085,0,0,1,920,332.214Z" transform="translate(-919.997 -331.144)"/>
      <path id="Path_6589" data-name="Path 6589" d="M952.141,332.215a1.045,1.045,0,0,0-.789-.977,3.269,3.269,0,0,0-1.835.083c-1.293.428.163,1.967.163,1.967s.967.953,1.872.287a1.415,1.415,0,0,0,.527-.817A2.085,2.085,0,0,0,952.141,332.215Z" transform="translate(-945.034 -331.145)"/>
      <path id="Path_6590" data-name="Path 6590" d="M910.5,291.4v.064h2.36v-.076Z" transform="translate(-908.12 -291.351)"/>
      <path id="Path_6591" data-name="Path 6591" d="M942.585,334.151h.075v-.217a.62.62,0,0,1,.637,0v.193h.136V334h-.067s.027-.263-.417-.221c0,0-.357-.034-.349.192h-.082Z" transform="translate(-939.452 -333.418)"/>
    </g>
    <path id="Path_6592" data-name="Path 6592" d="M920,331.568a1.045,1.045,0,0,1,.787-.977,3.287,3.287,0,0,1,1.836.083c1.293.429-.163,1.967-.163,1.967s-.968.953-1.871.287a1.407,1.407,0,0,1-.527-.817A2.079,2.079,0,0,1,920,331.568Z" transform="translate(-790.528 -283.992)" fill="#46ce04"/>
    <path id="Path_6593" data-name="Path 6593" d="M952.141,331.568a1.045,1.045,0,0,0-.789-.977,3.281,3.281,0,0,0-1.835.083c-1.292.429.163,1.967.163,1.967s.967.953,1.871.287a1.407,1.407,0,0,0,.527-.817A2.069,2.069,0,0,0,952.141,331.568Z" transform="translate(-815.565 -283.992)" fill="#46ce04"/>
    <path id="Path_6594" data-name="Path 6594" d="M910.5,290.772v.065h2.36v-.078Z" transform="translate(-778.651 -244.212)" fill="#46ce04"/>
    <path id="Path_6595" data-name="Path 6595" d="M942.585,333.523h.075v-.217a.624.624,0,0,1,.637,0v.195h.136v-.128h-.067s.027-.261-.417-.221c0,0-.357-.033-.349.192h-.082Z" transform="translate(-809.983 -286.281)" fill="#46ce04"/>
  </g>
</svg>
