<svg id="undraw_Loving_it_re_jfh4" xmlns="http://www.w3.org/2000/svg" width="143.941" height="152" viewBox="0 0 143.941 152">
  <path id="Path_6441" data-name="Path 6441" d="M391.268,625.078c-1.406,4.879-5.513,8.295-9.8,11.2q-.9.608-1.795,1.188l-.012.007-.084.056-.37.238.067.03s.066.035-.006.006l-.066-.026a20.427,20.427,0,0,1-6.929-3.962c-1.978-1.953-3.135-5.015-2.063-7.58a4.9,4.9,0,0,1,.53-.952c.087-.124.18-.243.278-.36a5.249,5.249,0,0,1,9.016,1.6c.315-2.93-2.1-5.385-4.427-7.2s-4.97-3.781-5.419-6.7a5.68,5.68,0,0,1,1.34-4.454c.032-.038.064-.077.1-.114a7.661,7.661,0,0,1,4.924-2.642c3.567-.371,7.032,1.517,9.623,4C390.346,613.4,392.867,619.53,391.268,625.078Z" transform="translate(-255.7 -486.115)" fill="#f2f2f2"/>
  <path id="Path_6442" data-name="Path 6442" d="M402.421,625.628a13.025,13.025,0,0,1,1.56,3.441,11.308,11.308,0,0,1,.391,3.34,14.488,14.488,0,0,1-1.9,6.593,20.853,20.853,0,0,1-3.146,4.2q-.9.608-1.795,1.188l-.012.007-.084.056-.37.238s.133.065.061.036l-.066-.026a11.425,11.425,0,0,0-8.461-12.493c.087-.124.18-.243.278-.36a12.054,12.054,0,0,1,1.99.753,11.81,11.81,0,0,1,5.34,5.148,12.075,12.075,0,0,1,1.315,6.626c.1-.093.2-.187.3-.281a21.172,21.172,0,0,0,4.707-6.122,13.479,13.479,0,0,0,1.411-6.377,12.182,12.182,0,0,0-2.442-6.583,28.212,28.212,0,0,0-5.348-5.512,32.058,32.058,0,0,0-6.651-4.106.231.231,0,0,1-.116-.3.2.2,0,0,1,.1-.114.171.171,0,0,1,.148.006c.293.135.585.272.874.415a32.423,32.423,0,0,1,6.7,4.419A26.11,26.11,0,0,1,402.421,625.628Z" transform="translate(-273.557 -493.046)" fill="#fff"/>
  <ellipse id="Ellipse_25" data-name="Ellipse 25" cx="8.298" cy="8.567" rx="8.298" ry="8.567" transform="translate(94.814 68.565) rotate(-151.337)" fill="#2f2e41"/>
  <ellipse id="Ellipse_26" data-name="Ellipse 26" cx="6.837" cy="6.837" rx="6.837" ry="6.837" transform="translate(84.804 52.432)" fill="#ffb8b8"/>
  <path id="Path_6443" data-name="Path 6443" d="M522.988,423.933l.879,2.487-1.293,7.486-5.33,4.429-4.233-6.545,2.038-6.192,1.529-1.724h0a1.13,1.13,0,0,1,1.1-1.239l3.338-.065a2.047,2.047,0,0,1,1.97,1.364Z" transform="translate(-427.681 -354.205)" fill="#ccc"/>
  <path id="Path_6444" data-name="Path 6444" d="M229.456,499.572h-3.413l-.471-13.164h3.885Z" transform="translate(-148.313 -350.997)" fill="#ffb8b8"/>
  <path id="Path_6445" data-name="Path 6445" d="M0,4.144H10.726V0H4.144A4.144,4.144,0,0,0,0,4.144H0Z" transform="translate(71.148 147.599) rotate(0.005)" fill="#2f2e41"/>
  <path id="Path_6446" data-name="Path 6446" d="M144.725,499.572h-3.413l-1.623-13.164h5.037Z" transform="translate(-39.673 -350.997)" fill="#ffb8b8"/>
  <path id="Path_6447" data-name="Path 6447" d="M0,4.144H10.726V0H4.144A4.144,4.144,0,0,0,0,4.144H0Z" transform="translate(95.057 147.599) rotate(0.005)" fill="#2f2e41"/>
  <path id="Path_6448" data-name="Path 6448" d="M577.042,377.529a2.8,2.8,0,0,0-.655,4.242l-2.823,5.741,3.07,2.566,3.873-8.163a2.815,2.815,0,0,0-3.465-4.386Z" transform="translate(-501.999 -321.404)" fill="#ffb8b8"/>
  <path id="Path_6449" data-name="Path 6449" d="M505.787,458.524a41.147,41.147,0,0,0,4.974-.367,1.989,1.989,0,0,0,1.671-2.492l-3.695-13.68,2.975-8.347a3.752,3.752,0,0,0-2.072-4.712l-4.087-1.728-1.228,7.6-2.926,3.69a.952.952,0,0,1-1.576-.128L497.6,434.38l1.815-7.319-2.706.32a4.7,4.7,0,0,0-3.873,3.128,12.545,12.545,0,0,0-.208,7.495l1.122,3.984-1.969,12.728a2.593,2.593,0,0,0,2.288,2.976,26.066,26.066,0,0,0,3.791.159,2.486,2.486,0,0,0,2.333-2.026.355.355,0,0,1,.684,0q.157.556.345,1.238C501.526,458.164,503.432,458.524,505.787,458.524Z" transform="translate(-410.394 -357.447)" fill="#2f2e41"/>
  <path id="Path_6450" data-name="Path 6450" d="M562.075,414.047a2.565,2.565,0,0,0,.989-.2,2.432,2.432,0,0,0,1.453-1.764A2.942,2.942,0,0,0,563,408.928l-7.975-4.33.436-1.725a1.386,1.386,0,0,0-.536-1.429l-2.056-1.528a1.319,1.319,0,0,0-1.113-.235,1.164,1.164,0,0,0-.774.641l-1.068,2.307a4.2,4.2,0,0,0,1.681,5.228l8.945,5.73A2.855,2.855,0,0,0,562.075,414.047Z" transform="translate(-478.558 -337.663)" fill="#2f2e41"/>
  <path id="Path_6451" data-name="Path 6451" d="M502.722,563.787l.084,0,4.345-.175a1.253,1.253,0,0,0,1.168-1.38l-4.41-42.429-11.574-4.209-6.816,3.857-7.457,41.112a1.253,1.253,0,0,0,.933,1.446l.018,0,4.448-.109a1.257,1.257,0,0,0,1.474-.843l9.473-33.243a.418.418,0,0,1,.8.037l6.289,34.953A1.249,1.249,0,0,0,502.722,563.787Z" transform="translate(-402.403 -421.331)" fill="#2f2e41"/>
  <path id="Path_6452" data-name="Path 6452" d="M518.384,364.593a2.739,2.739,0,1,1-4.892,1.3,3.537,3.537,0,0,1-3.115,3.98,4.1,4.1,0,0,1-4.149-3.173,4.893,4.893,0,0,1,2.084-4.948,6.092,6.092,0,0,1,5.463-.54,10.536,10.536,0,0,1,4.609,3.378Z" transform="translate(-420.771 -309.64)" fill="#2f2e41"/>
  <path id="Path_6453" data-name="Path 6453" d="M440,330.473a21.86,21.86,0,0,1,3.69-5.984,7.4,7.4,0,0,1,6.325-2.459c2.32.4,4.319,2.741,3.8,5.039a2.453,2.453,0,0,0,1.89,2.645,6.211,6.211,0,0,0,3.518-.344,10.194,10.194,0,0,1,3.487-.75,5,5,0,0,1,4.483,4.768,6.233,6.233,0,0,1-3.733,5.661,8.351,8.351,0,0,1-6.961-.284,12.816,12.816,0,0,1-5.144-4.892,6.457,6.457,0,0,0-9.253-1.468,1.465,1.465,0,0,1-1.981-.159A1.538,1.538,0,0,1,440,330.473Z" transform="translate(-350.632 -281.599)" fill="#2f2e41"/>
  <path id="Path_6454" data-name="Path 6454" d="M680.255,234.384l2.281-2.058c8.1-7.437,13.448-12.264,13.448-18.277a8.554,8.554,0,0,0-8.651-8.7,9.3,9.3,0,0,0-7.078,3.323,9.3,9.3,0,0,0-7.078-3.323,8.554,8.554,0,0,0-8.651,8.7c0,6.013,5.348,10.84,13.448,18.277Z" transform="translate(-641.977 -197.455)" fill="#46ce04"/>
  <path id="Path_6455" data-name="Path 6455" d="M659.355,228.08a1.084,1.084,0,0,0,.727-1.031V179.505A2.508,2.508,0,0,0,657.577,177H586.031a2.508,2.508,0,0,0-2.505,2.505v40.088a2.508,2.508,0,0,0,2.505,2.505h67.491l4.617,5.643a1.084,1.084,0,0,0,.842.4A1.109,1.109,0,0,0,659.355,228.08Zm-1.779-50.523a1.951,1.951,0,0,1,1.949,1.949v47.543a.538.538,0,0,1-.955.341l-4.784-5.848H586.031a1.951,1.951,0,0,1-1.949-1.949V179.505a1.951,1.951,0,0,1,1.949-1.949Z" transform="translate(-583.526 -177)" fill="#3f3d56"/>
  <path id="Path_6456" data-name="Path 6456" d="M510.11,485.215l.483-1.124c1.7-4.038,2.828-6.673,1.829-8.849a3.407,3.407,0,0,0-4.487-1.753l-.09.041a3.705,3.705,0,0,0-2.009,2.379,3.705,3.705,0,0,0-3.114-.026,3.407,3.407,0,0,0-1.726,4.5q.02.045.042.09c1,2.176,3.737,3.034,7.9,4.379Z" transform="translate(-413.183 -390.742)" fill="#46ce04"/>
  <path id="Path_6457" data-name="Path 6457" d="M480.528,482.722a2.8,2.8,0,0,1,4-1.566l5-3.759,1.208,3.438-5.171,4.309a2.815,2.815,0,0,1-5.037-2.423Z" transform="translate(-385.464 -393.771)" fill="#ffb8b8"/>
  <path id="Path_6458" data-name="Path 6458" d="M479.928,453.763a1.163,1.163,0,0,0,.622-.181l2.149-1.358a4.2,4.2,0,0,0,1.424-5.3l-4.405-9.666a2.739,2.739,0,0,0-1.978-1.591,2.431,2.431,0,0,0-2.178.694,2.942,2.942,0,0,0-.44,3.476l4.35,7.964-1.3,1.212a1.386,1.386,0,0,0-.325,1.491l.9,2.4a1.32,1.32,0,0,0,.808.8A1.177,1.177,0,0,0,479.928,453.763Z" transform="translate(-377.689 -363.626)" fill="#2f2e41"/>
  <path id="Path_6459" data-name="Path 6459" d="M341.752,721.557h87.414a.278.278,0,1,0,0-.557H341.752a.278.278,0,0,0,0,.557Z" transform="translate(-285.504 -569.557)" fill="#ccc"/>
</svg>
