<svg id="undraw_order_delivered_p6ba" xmlns="http://www.w3.org/2000/svg" width="176.934" height="119" viewBox="0 0 176.934 119">
  <path id="Path_6506" data-name="Path 6506" d="M820.945,190.056H797.493c-3.174-8.593-4.553-16.582,0-22.579a11.726,11.726,0,0,1,11.726-11.726h0a11.712,11.712,0,0,1,9.559,4.932,9.816,9.816,0,0,1,1.162,8.971C818.046,175.023,819.2,182.351,820.945,190.056Z" transform="translate(-666.025 -155.75)" fill="#2f2e41"/>
  <path id="Path_6507" data-name="Path 6507" d="M969.732,700.422h0a3.174,3.174,0,0,1-3.033-2.24l-.966-3.14a4.674,4.674,0,0,1-.125-2.244l.658-3.478h4.616l1.915,7.1a3.174,3.174,0,0,1-3.064,4Z" transform="translate(-802.426 -581.475)" fill="#2f2e41"/>
  <path id="Path_6508" data-name="Path 6508" d="M807.424,700.422h0a3.173,3.173,0,0,0,3.033-2.24l.966-3.14a4.674,4.674,0,0,0,.125-2.244l-.658-3.478h-4.616l-1.915,7.1a3.174,3.174,0,0,0,3.064,4Z" transform="translate(-674.097 -581.475)" fill="#2f2e41"/>
  <path id="Path_6509" data-name="Path 6509" d="M835.847,448.885h-5.115L808.527,406.72l-4.1,42.165H799.92c-2.314-26.552-7.945-51.843,0-61.376l18.587,1.746Z" transform="translate(-667.017 -340.666)" fill="#2f2e41"/>
  <ellipse id="Ellipse_31" data-name="Ellipse 31" cx="6.237" cy="6.237" rx="6.237" ry="6.237" transform="translate(136.073 5.863)" fill="#9f616a"/>
  <path id="Path_6510" data-name="Path 6510" d="M843.446,254.652H829.6l-2.37-10.978c4.6-1.358,5.695-4.518,4.74-8.732l7.485-.5c.424,3.395,1.2,6.56,5.988,7.111Z" transform="translate(-692.081 -218.537)" fill="#9f616a"/>
  <path id="Path_6511" data-name="Path 6511" d="M833.6,293.489c-7.856,2.983-14.247,2.89-18.712-1.247,2.015-6.644,2.135-14.826,1.247-23.827l2.495-1.123.873,7.984,12.35-.624,2.745-8.732,2.744.624C837.55,277.371,836.9,287.111,833.6,293.489Z" transform="translate(-682.232 -243.653)" fill="#e6e6e6"/>
  <path id="Path_6512" data-name="Path 6512" d="M922.087,361.624l1.467,4.767a2.582,2.582,0,0,1-2.468,3.342h0a2.582,2.582,0,0,1-2.568-2.85l.575-5.508-2.37-18.712,1.746-8.233h4.366Z" transform="translate(-763.486 -298.315)" fill="#9f616a"/>
  <path id="Path_6513" data-name="Path 6513" d="M758.757,359.2l-2.578,4.27a2.582,2.582,0,0,0,1.585,3.84h0a2.582,2.582,0,0,0,3.182-2.144l.776-5.483,6.832-17.581,1.378-8.419-5.314-1.049Z" transform="translate(-635.489 -296.881)" fill="#9f616a"/>
  <path id="Path_6514" data-name="Path 6514" d="M929.894,282.243l-8.233-.125V267.772l1.268.185a6.06,6.06,0,0,1,5.16,5.438Z" transform="translate(-767.426 -245.13)" fill="#e6e6e6"/>
  <path id="Path_6515" data-name="Path 6515" d="M788.345,289.649l8.233-.125V275.178l-1.268.185a6.06,6.06,0,0,0-5.16,5.438Z" transform="translate(-661.43 -251.039)" fill="#e6e6e6"/>
  <path id="Path_6516" data-name="Path 6516" d="M842.113,179.63a17.148,17.148,0,0,1-11.477,1.123l-1.247-6.487h12.35Z" transform="translate(-694.07 -170.524)" fill="#2f2e41"/>
  <rect id="Rectangle_91" data-name="Rectangle 91" width="39.928" height="32.882" transform="translate(8.405 86.118)" fill="#e6e6e6"/>
  <rect id="Rectangle_92" data-name="Rectangle 92" width="6.872" height="9.297" transform="translate(24.962 109.346)" fill="#46ce04"/>
  <path id="Path_6517" data-name="Path 6517" d="M426.165,714.5l-.7-.587.052.367S425.763,714.357,426.165,714.5Z" transform="translate(-372.574 -601.097)" fill="none"/>
  <path id="Path_6518" data-name="Path 6518" d="M488.026,390.945l1.081-2.883,10.092-5.767,6.848-1.442Z" transform="translate(-388.442 -303.875)" fill="#46ce04"/>
  <path id="Path_6519" data-name="Path 6519" d="M233.21,390.945l-1.081-2.883-10.092-5.767-6.848-1.442Z" transform="translate(-171.279 -303.875)" fill="#46ce04"/>
  <path id="Path_6520" data-name="Path 6520" d="M326.546,374.592H287.98l-3.244-15.138h45.053Z" transform="translate(-226.52 -286.802)" fill="#46ce04"/>
  <path id="Path_6521" data-name="Path 6521" d="M326.546,374.592H287.98l-3.244-15.138h45.053Z" transform="translate(-226.52 -286.802)" opacity="0.1"/>
  <rect id="Rectangle_93" data-name="Rectangle 93" width="38.926" height="31.957" transform="translate(61.283 86.889)" fill="#46ce04"/>
  <rect id="Rectangle_94" data-name="Rectangle 94" width="6.872" height="9.297" transform="translate(77.327 109.342)" fill="#3f3d56"/>
  <path id="Path_6522" data-name="Path 6522" d="M176.853,586.449H0v-.441H176.934Z" transform="translate(0 -467.565)" fill="#3f3d56"/>
  <rect id="Rectangle_95" data-name="Rectangle 95" width="16.169" height="5.053" transform="translate(72.674 93.429)" fill="#fff"/>
  <rect id="Rectangle_96" data-name="Rectangle 96" width="16.169" height="5.053" transform="translate(20.206 93.429)" fill="#fff"/>
</svg>
