<svg id="undraw_Wall_post_re_y78d" xmlns="http://www.w3.org/2000/svg" width="139.665" height="95.509" viewBox="0 0 139.665 95.509">
  <path id="Path_6481" data-name="Path 6481" d="M625.878,636.773c1.345,2.378.2,10.41.2,10.41s-7.47-3.162-8.816-5.539a4.946,4.946,0,0,1,8.611-4.87Z" transform="translate(-543.68 -551.999)" fill="#f1f1f1"/>
  <path id="Path_6482" data-name="Path 6482" d="M636.984,649.73l-.159.033a25.554,25.554,0,0,0-6.92-12.236l.109-.12A25.726,25.726,0,0,1,636.984,649.73Z" transform="translate(-554.472 -554.557)" fill="#fff"/>
  <path id="Path_6483" data-name="Path 6483" d="M675.6,618.073c-1.826,3.312-12.118,7.8-12.118,7.8s-1.7-11.1.128-14.409a6.846,6.846,0,1,1,11.99,6.611Z" transform="translate(-581.18 -530.591)" fill="#f1f1f1"/>
  <path id="Path_6484" data-name="Path 6484" d="M666.413,629.772l-.155-.163c7.448-7.073,9.376-16.938,9.394-17.037l.221.042C675.855,612.713,673.915,622.647,666.413,629.772Z" transform="translate(-584.018 -534.372)" fill="#fff"/>
  <rect id="Rectangle_62" data-name="Rectangle 62" width="132.077" height="62.673" transform="translate(0.056 3.621)" fill="#e6e6e6"/>
  <rect id="Rectangle_75" data-name="Rectangle 75" width="124.523" height="52.29" transform="translate(3.833 8.995)" fill="#fff"/>
  <rect id="Rectangle_80" data-name="Rectangle 80" width="132.077" height="5.611" fill="#46ce04"/>
  <ellipse id="Ellipse_90" data-name="Ellipse 90" cx="1.04" cy="1.04" rx="1.04" ry="1.04" transform="translate(3.13 1.887)" fill="#fff"/>
  <ellipse id="Ellipse_91" data-name="Ellipse 91" cx="1.04" cy="1.04" rx="1.04" ry="1.04" transform="translate(7.077 1.887)" fill="#fff"/>
  <ellipse id="Ellipse_92" data-name="Ellipse 92" cx="1.04" cy="1.04" rx="1.04" ry="1.04" transform="translate(11.025 1.887)" fill="#fff"/>
  <path id="Path_142" data-name="Path 142" d="M506.175,327.323c-.28,0-.506.384-.506.857s.227.852.506.853h52.145c.28,0,.506-.384.506-.857s-.227-.852-.506-.853Z" transform="translate(-453.502 -302.543)" fill="#e6e6e6"/>
  <path id="Path_143" data-name="Path 143" d="M506.175,354.712c-.28,0-.506.384-.506.857s.227.852.506.853h38.532c.28,0,.506-.384.506-.856s-.227-.852-.506-.853Z" transform="translate(-453.502 -324.802)" fill="#e6e6e6"/>
  <path id="Path_142-2" data-name="Path 142" d="M506.175,381.482c-.28,0-.506.384-.506.856s.227.852.506.853h52.145c.28,0,.506-.384.506-.856s-.227-.852-.506-.853Z" transform="translate(-453.502 -346.559)" fill="#e6e6e6"/>
  <path id="Path_143-2" data-name="Path 143" d="M506.175,408.871c-.28,0-.506.384-.506.856s.227.852.506.853h38.532c.28,0,.506-.384.506-.856s-.227-.852-.506-.853Z" transform="translate(-453.502 -368.819)" fill="#e6e6e6"/>
  <path id="Path_142-3" data-name="Path 142" d="M290.1,428.323c-.28,0-.506.384-.506.857s.227.852.506.853H315.84c.28,0,.506-.384.506-.856s-.227-.852-.506-.853Z" transform="translate(-277.893 -384.628)" fill="#e6e6e6"/>
  <path id="Path_143-3" data-name="Path 143" d="M290.1,455.712c-.28,0-.506.384-.506.856s.227.852.506.853h12.127c.28,0,.506-.384.506-.857s-.227-.852-.506-.853Z" transform="translate(-277.893 -406.888)" fill="#e6e6e6"/>
  <path id="Path_6485" data-name="Path 6485" d="M325.592,282.213a10.433,10.433,0,1,0-18.029,9.91c.094.118.191.236.29.35l.021.022a10.136,10.136,0,0,0,.777.8c.071.066.146.133.221.2.142.127.288.249.44.365a10.248,10.248,0,0,0,.925.65l.011.006c.208.129.419.249.635.363l.088.045c.2.1.408.2.62.3l.133.056.009,0a10.134,10.134,0,0,0,1.315.444,10.438,10.438,0,0,0,2.691.352c.331,0,.659-.015.983-.047a10.394,10.394,0,0,0,2.18-.44l.006,0a10.229,10.229,0,0,0,1.309-.519l.007,0c.1-.045.187-.094.281-.14l.045-.022c.075-.039.15-.079.225-.12.187-.1.371-.212.552-.328.051-.03.1-.062.15-.1.165-.109.328-.225.485-.343.028-.021.058-.041.086-.064A10.43,10.43,0,0,0,325.592,282.213Z" transform="translate(-290.662 -260.189)" fill="#fff"/>
  <ellipse id="Ellipse_188" data-name="Ellipse 188" cx="1.564" cy="1.564" rx="1.564" ry="1.564" transform="translate(26.957 26.627)" fill="#2f2e41"/>
  <path id="Path_969" data-name="Path 969" d="M376.431,336.4a1.564,1.564,0,0,1,1.376,2.306,1.563,1.563,0,1,0-2.6-1.718,1.56,1.56,0,0,1,1.221-.588Z" transform="translate(-347.475 -309.73)" fill="#2f2e41"/>
  <ellipse id="Ellipse_189" data-name="Ellipse 189" cx="4.593" cy="4.593" rx="4.593" ry="4.593" transform="translate(21.006 19.001)" fill="#2f2e41"/>
  <path id="Path_970" data-name="Path 970" d="M338.449,298.132a4.592,4.592,0,0,1,6.365-.482c-.037-.036-.075-.072-.114-.106a4.593,4.593,0,0,0-6.129,6.842l.026.023c.039.035.079.067.119.1a4.592,4.592,0,0,1-.267-6.378Z" transform="translate(-316.455 -277.387)" fill="#2f2e41"/>
  <ellipse id="Ellipse_190" data-name="Ellipse 190" cx="2.958" cy="2.958" rx="2.958" ry="2.958" transform="translate(22.602 22.232)" fill="#a0616a"/>
  <path id="Path_6486" data-name="Path 6486" d="M333.473,350.988v.993c-.182.116-.365.225-.553.328-.075.041-.15.081-.225.12l-.045.022c-.094.047-.185.1-.281.14l-.008,0a10.232,10.232,0,0,1-1.309.519l-.006,0a10.4,10.4,0,0,1-2.18.44c-.324.032-.652.047-.983.047a10.438,10.438,0,0,1-2.691-.352,10.136,10.136,0,0,1-1.315-.444l-.009,0-.133-.056c-.212-.092-.418-.191-.62-.3l-.088-.045c-.215-.114-.427-.234-.635-.363l-.011-.006a10.25,10.25,0,0,1-.925-.65c-.152-.116-.3-.238-.44-.365-.075-.064-.15-.131-.221-.2a10.135,10.135,0,0,1-.777-.8,3.783,3.783,0,0,1,.142-.575l0,0a.825.825,0,0,1,.039-.094.734.734,0,0,1,.036-.079,1.779,1.779,0,0,1,1.695-.816c.425-.019.9,0,1.391,0,.262,0,.534-.011.805-.036,1.714-.155,1.4-1.167,1.479-1.712.077-.528.552-.071.584-.041l0,0a6.043,6.043,0,0,0,3.109.545c.184-.022.367-.036.551-.041.483-.006.378.133.212.247a2.1,2.1,0,0,1-.253.142s-.077.468-.155,1.169c-.075.67,1.21.985,1.316,1.009l.007,0a2.579,2.579,0,0,1,1.425.037h0A1.689,1.689,0,0,1,333.473,350.988Z" transform="translate(-302.619 -318.091)" fill="#cbcbcb"/>
  <path id="Path_6487" data-name="Path 6487" d="M331.943,359.483c0,.139,0,.272-.009.4,0,.075-.006.148-.009.217l-.009,0-.133-.056c-.212-.092-.418-.191-.62-.3l-.088-.045c-.215-.114-.427-.234-.635-.363.006-.066.015-.131.024-.2.021-.144.037-.29.049-.434a6.027,6.027,0,0,0-.534-2.951v0c-.038-.075-.06-.116-.06-.116a1.129,1.129,0,0,1,1.322,0,.468.468,0,0,1,.129.112C331.838,356.3,331.965,358.156,331.943,359.483Z" transform="translate(-310.665 -325.382)" fill="#2f2e41"/>
  <path id="Path_6488" data-name="Path 6488" d="M379.732,365.195c-.008.21-.019.429-.032.652v0l-.008,0a10.222,10.222,0,0,1-1.309.519l-.006,0-.021-.526,0-.069-.1-2.562a.43.43,0,0,1,.429-.449h.949c.047,0,.081.1.1.268v0A16.216,16.216,0,0,1,379.732,365.195Z" transform="translate(-349.95 -331.348)" fill="#2f2e41"/>
  <path id="Path_975" data-name="Path 975" d="M350.082,309.764v2.959h.685l.872-.934-.117.934h3.028l-.187-.934.375.934h.483v-2.959Z" transform="translate(-327.052 -288.272)" fill="#2f2e41"/>
  <ellipse id="Ellipse_191" data-name="Ellipse 191" cx="0.234" cy="0.428" rx="0.234" ry="0.428" transform="translate(22.329 24.139)" fill="#a0616a"/>
  <ellipse id="Ellipse_192" data-name="Ellipse 192" cx="0.234" cy="0.428" rx="0.234" ry="0.428" transform="translate(28.323 24.139)" fill="#a0616a"/>
  <path id="Path_6489" data-name="Path 6489" d="M325.592,282.213a10.433,10.433,0,1,0-18.029,9.91c.094.118.191.236.29.35l.021.022a10.136,10.136,0,0,0,.777.8c.071.066.146.133.221.2.142.127.288.249.44.365a10.248,10.248,0,0,0,.925.65l.011.006c.208.129.419.249.635.363l.088.045c.2.1.408.2.62.3l.133.056.009,0a10.134,10.134,0,0,0,1.315.444,10.438,10.438,0,0,0,2.691.352c.331,0,.659-.015.983-.047a10.394,10.394,0,0,0,2.18-.44l.006,0a10.229,10.229,0,0,0,1.309-.519l.007,0c.1-.045.187-.094.281-.14l.045-.022c.075-.039.15-.079.225-.12.187-.1.371-.212.552-.328.051-.03.1-.062.15-.1.165-.109.328-.225.485-.343.028-.021.058-.041.086-.064A10.43,10.43,0,0,0,325.592,282.213ZM321.7,293.5c-.062.049-.125.1-.189.139s-.124.092-.187.133-.109.077-.165.112-.094.062-.14.092q-.233.146-.472.281l-.051.028c-.071.039-.142.077-.213.114l-.03.015-.011.006c-.09.047-.182.092-.273.135a9.179,9.179,0,0,1-1.092.442c-.049.017-.1.034-.146.049a9.824,9.824,0,0,1-2.064.419c-.307.028-.618.043-.931.043a9.731,9.731,0,0,1-2.545-.333,9.247,9.247,0,0,1-1.249-.423l-.127-.052-.066-.03c-.176-.077-.35-.161-.521-.249l-.082-.043c-.208-.109-.412-.225-.611-.348-.073-.045-.146-.092-.217-.14-.225-.148-.444-.307-.657-.474-.144-.109-.283-.225-.418-.345-.071-.06-.14-.125-.208-.187a9.523,9.523,0,0,1-.753-.779c-.079-.09-.155-.18-.229-.273a.706.706,0,0,1-.047-.058A9.862,9.862,0,1,1,321.7,293.5Z" transform="translate(-290.662 -260.189)" fill="#cbcbcb"/>
  <path id="Path_6490" data-name="Path 6490" d="M741.432,378.264a2.18,2.18,0,0,1,.26.223L751.76,376.5l.809-2.358,3.718.756-1.026,4.313a1.655,1.655,0,0,1-1.527,1.27l-11.659.584a2.172,2.172,0,1,1-.642-2.8Z" transform="translate(-642.319 -340.595)" fill="#ffb7b7"/>
  <path id="Path_6491" data-name="Path 6491" d="M809.661,352.72a.93.93,0,0,1-.067-.772l1.571-4.4a2.586,2.586,0,0,1,5.076.99l-.228,4.682a.931.931,0,0,1-1.111.868l-4.613-.914A.93.93,0,0,1,809.661,352.72Z" transform="translate(-700.466 -317.279)" fill="#46ce04"/>
  <path id="Path_6492" data-name="Path 6492" d="M550.645,444.475h-2.96l-1.408-11.415h4.368Z" transform="translate(-443.974 -351.959)" fill="#ffb7b7"/>
  <path id="Path_6493" data-name="Path 6493" d="M759.323,687.691h-9.543v-.121a3.714,3.714,0,0,1,3.714-3.714h5.829Z" transform="translate(-651.898 -592.306)" fill="#2f2e41"/>
  <path id="Path_6494" data-name="Path 6494" d="M683.015,431.57l-2.741,1.116-5.609-10.042L678.711,421Z" transform="translate(-548.319 -342.156)" fill="#ffb7b7"/>
  <path id="Path_6495" data-name="Path 6495" d="M916.12,669.706l-8.838,3.6-.045-.112a3.714,3.714,0,0,1,2.04-4.841h0l5.4-2.2Z" transform="translate(-779.643 -577.92)" fill="#2f2e41"/>
  <path id="Path_6496" data-name="Path 6496" d="M770.365,348.581l-1.362-7.2h0a7.311,7.311,0,0,1,1.125-6.26l4.978-6.656,4.755.14h0a27.148,27.148,0,0,1,1.179,17.185l-.874,3.362c3.92,3.535,6.548,13.448,8.94,24.525l6.558,14.5L784.382,391.6l-7.31-21.269-6.529,21.427-9.561-.367,7.272-33.144Z" transform="translate(-661.002 -303.467)" fill="#2f2e41"/>
  <ellipse id="Ellipse_30" data-name="Ellipse 30" cx="4.638" cy="4.638" rx="4.638" ry="4.638" transform="translate(112.3 14.371)" fill="#ffb7b7"/>
  <path id="Path_6497" data-name="Path 6497" d="M847.838,273.62a49.535,49.535,0,0,1-1.819-5.366c-.663-1.771-1.868-3.528-3.7-4.016a23.442,23.442,0,0,0-3.2-.24,2.847,2.847,0,0,1-2.3-1.425,5.869,5.869,0,0,0-.3-2.436,7.305,7.305,0,0,0-4.116-4.169,6.732,6.732,0,0,0-4.784-.26,4.722,4.722,0,0,0-3.109,3.491,3.658,3.658,0,0,0,2.141,3.98c1.1.411,2.514.274,3.231,1.2s.206,2.31-.454,3.3l.045.046c2.156.025,4.487-.391,5.972-1.955a4.73,4.73,0,0,0,.444-.546c.045.073.093.144.144.212a8.02,8.02,0,0,0,3.034,2.105,6.9,6.9,0,0,1,2.942,2.212c1.211,1.892.416,4.441,1.108,6.578a4.86,4.86,0,0,0,9.139.3C850.37,276.787,848.7,275.3,847.838,273.62Z" transform="translate(-712.59 -244.075)" fill="#2f2e41"/>
  <path id="Path_6498" data-name="Path 6498" d="M709.273,332.678l.2-4.766,6.732-13.384a1.941,1.941,0,0,1,.881-.876,1.965,1.965,0,0,1,2.742,1.142,2.038,2.038,0,0,1,.085.381,1.945,1.945,0,0,1-.2,1.12l-6.741,13.4Z" transform="translate(-618.977 -291.263)" fill="#46ce04"/>
  <path id="Path_6499" data-name="Path 6499" d="M721.318,313.947l-7.307,14.529-.557-.28,7.068-14.052A1.863,1.863,0,0,1,721.318,313.947Z" transform="translate(-622.374 -291.672)" fill="#3f3d56"/>
  <path id="Path_6500" data-name="Path 6500" d="M732.653,319.257l-7.029,13.975-.557-.28,7.292-14.5a1.878,1.878,0,0,1,.213.44A1.942,1.942,0,0,1,732.653,319.257Z" transform="translate(-631.813 -295.334)" fill="#3f3d56"/>
  <path id="Path_6501" data-name="Path 6501" d="M727.357,314.791l-7.388,14.689-.557-.28,7.4-14.708a1.811,1.811,0,0,1,.23.1A1.91,1.91,0,0,1,727.357,314.791Z" transform="translate(-627.217 -292.114)" fill="#3f3d56"/>
  <path id="Path_6502" data-name="Path 6502" d="M710.56,407.617l-.743.6.062-1.579A1.477,1.477,0,0,1,710.56,407.617Z" transform="translate(-619.418 -367.003)" fill="#3f3d56"/>
  <path id="Path_6503" data-name="Path 6503" d="M736.115,324.474a2.18,2.18,0,0,1,.049.339l8.888,5.127,2.16-1.244,2.3,3.015-3.61,2.573a1.655,1.655,0,0,1-1.986-.048l-9.165-7.23a2.172,2.172,0,1,1,1.361-2.533Z" transform="translate(-637.309 -298.865)" fill="#ffb7b7"/>
  <path id="Path_6504" data-name="Path 6504" d="M803.01,343.23a.93.93,0,0,1,.458-.626l4.078-2.281a2.586,2.586,0,1,1,3.171,4.085l-3.252,3.377a.931.931,0,0,1-1.408-.077l-2.872-3.723a.93.93,0,0,1-.175-.755Z" transform="translate(-695.144 -312.667)" fill="#46ce04"/>
  <path id="Path_6505" data-name="Path 6505" d="M659.274,703.375H587.923a.187.187,0,0,1,0-.375h71.351a.187.187,0,0,1,0,.375Z" transform="translate(-520.201 -607.866)" fill="#cbcbcb"/>
</svg>
