<svg id="undraw_Shared_workspace_re_3gsu" xmlns="http://www.w3.org/2000/svg" width="238.73" height="77" viewBox="0 0 238.73 77">
  <path id="Path_6523" data-name="Path 6523" d="M950.752,552.5h-8.774a1.359,1.359,0,0,0-1.04.481,2.081,2.081,0,1,0,.537,3.916l.728,2.365a1.371,1.371,0,0,0,1.31.968h5.7a1.371,1.371,0,0,0,1.31-.968l1.535-4.988a1.371,1.371,0,0,0-1.31-1.774Zm-10.184,4.014a1.487,1.487,0,0,1,0-2.973c.027,0,.052.007.079.008a1.357,1.357,0,0,0,.021.726l.628,2.041A1.469,1.469,0,0,1,940.567,556.514Z" transform="translate(-718.486 -483.527)" fill="#f0f0f0"/>
  <path id="Path_6524" data-name="Path 6524" d="M231.752,531.5h-8.774a1.359,1.359,0,0,0-1.04.481,2.081,2.081,0,1,0,.537,3.916l1.025,8.608a1.371,1.371,0,0,0,1.31.968h5.7a1.371,1.371,0,0,0,1.31-.968l1.238-11.231a1.371,1.371,0,0,0-1.31-1.774Zm-10.184,4.014a1.487,1.487,0,0,1,0-2.973c.027,0,.052.007.079.008a1.357,1.357,0,0,0,.021.726l.628,2.041A1.467,1.467,0,0,1,221.567,535.514Z" transform="translate(-213.243 -468.77)" fill="#f0f0f0"/>
  <path id="Path_6525" data-name="Path 6525" d="M598.171,501.878a2.378,2.378,0,1,0-2.378,2.378c.03,0,.058,0,.088,0a21.162,21.162,0,0,1,.933,5.9,18.754,18.754,0,0,1-.17,2.982,2.2,2.2,0,0,1-.993,1.833c-.519.244-.067,1.013.45.77a2.71,2.71,0,0,0,1.338-2.006,15.857,15.857,0,0,0,.268-3.164,22.024,22.024,0,0,0-.956-6.51A2.378,2.378,0,0,0,598.171,501.878Z" transform="translate(-476.007 -446.284)" fill="#e6e6e6"/>
  <path id="Path_482" data-name="Path 482" d="M605.764,523.237s-3.189-7.85,6.378-13.737Z" transform="translate(-484.327 -453.311)" fill="#e6e6e6"/>
  <path id="Path_483" data-name="Path 483" d="M586.3,542.115s-.973-5.6-8.5-5.547Z" transform="translate(-465.033 -472.331)" fill="#e6e6e6"/>
  <path id="Path_6526" data-name="Path 6526" d="M583.545,558.187H570.47a1.337,1.337,0,0,1-1.2-.752l-2.847-5.852a1.337,1.337,0,0,1,1.2-1.922h18.769a1.337,1.337,0,0,1,1.2,1.922l-2.847,5.852A1.337,1.337,0,0,1,583.545,558.187Z" transform="translate(-456.944 -481.532)" fill="#f0f0f0"/>
  <path id="Path_6527" data-name="Path 6527" d="M436.932,578.095H198.8a.3.3,0,0,1,0-.595H436.932a.3.3,0,0,1,0,.595Z" transform="translate(-198.5 -501.095)" fill="#3f3d56"/>
  <path id="Path_6528" data-name="Path 6528" d="M151.837,129.341l-5.778-21.847-.669-2.522.627-.582,10.769-5.335,15.388.383,9.034,4.638.049,3.418.446,30.8,1.8,7.559H150.453l2.566-12.039Z" transform="translate(-102.166 -69.606)" fill="#46ce04"/>
  <path id="Path_6529" data-name="Path 6529" d="M467.448,478.219h-8.614l-2.378-17.172.622-21.185.086-2.882,1.644-.536a10.439,10.439,0,0,1,3,3.419,14.061,14.061,0,0,1,1.716,8.019s.2,4.185.009,6.972C463.407,456.757,465.629,468.794,467.448,478.219Z" transform="translate(-379.766 -401.974)" fill="#46ce04"/>
  <path id="Path_6530" data-name="Path 6530" d="M336.791,462.539l-.03.218-2.285,16.51h-9.9c.794-9.355,1.728-21.05,1.6-22.924-.186-2.785.009-6.972.009-6.972a13.909,13.909,0,0,1,1.983-8.46,11.251,11.251,0,0,1,2.148-2.522,6,6,0,0,1,.585-.453l1.644.534.43,2.441Z" transform="translate(-287.09 -403.023)" fill="#46ce04"/>
  <path id="Path_6531" data-name="Path 6531" d="M369.517,346.053a10.667,10.667,0,1,0,10.667-10.667h0A10.64,10.64,0,0,0,369.517,346Q369.517,346.027,369.517,346.053Z" transform="translate(-318.674 -330.961)" fill="#ffb7b7"/>
  <path id="Path_6532" data-name="Path 6532" d="M364,486h0a2.3,2.3,0,0,1-2.3,2.3H300.3A2.3,2.3,0,0,1,298,486h0a2.3,2.3,0,0,1,2.3-2.3h.682a1.576,1.576,0,0,1-.06-.42V451.936a1.994,1.994,0,0,1,1.994-1.994h56.179a1.994,1.994,0,0,1,1.994,1.994v31.351a1.484,1.484,0,0,1-.06.42h.682A2.3,2.3,0,0,1,364,486Z" transform="translate(-268.419 -411.46)" fill="#3f3d56"/>
  <path id="Path_6533" data-name="Path 6533" d="M404.612,493.4a3.549,3.549,0,1,1,3.549-3.549A3.549,3.549,0,0,1,404.612,493.4Zm0-6.5a2.954,2.954,0,1,0,2.954,2.954,2.954,2.954,0,0,0-2.954-2.954Z" transform="translate(-340.842 -437.007)" fill="#fff"/>
  <circle id="Ellipse_32" data-name="Ellipse 32" cx="3.251" cy="3.251" r="3.251" transform="translate(59.33 48.4)" fill="#fff"/>
  <path id="Path_6534" data-name="Path 6534" d="M744.5,353.567v-6.3a14.27,14.27,0,1,1,28.541,0v6.3a3.22,3.22,0,0,1-3.216,3.216H750.535l-1.576-3.348v3.348h-1.243a3.22,3.22,0,0,1-3.216-3.216Z" transform="translate(-582.176 -329.284)" fill="#2f2e41"/>
  <path id="Path_6535" data-name="Path 6535" d="M827.466,459.815l.615,6.66.279,3.026.446,4.818.056.621.363,3.913.009.043a3.564,3.564,0,0,0,3.445,2.5l16.554-.286,4.672-.081c.09.135.178.257.266.365a4.6,4.6,0,0,0,3.353,1.673,4.558,4.558,0,0,0,3.494-1.394c.09-.092.178-.189.259-.29a4.6,4.6,0,0,0,.3-5.395,4.549,4.549,0,0,0-3.157-2.044,4.6,4.6,0,0,0-3.612.988,4.069,4.069,0,0,0-.443.426l-5.129-.748-12.917-1.88-.552-7.453c0-.034,0-.068-.007-.1l-.446-6.014a3.938,3.938,0,0,0-3.983-3.645,3.819,3.819,0,0,0-.977.137,3.883,3.883,0,0,0-1.013.437,3.929,3.929,0,0,0-1.871,3.724Z" transform="translate(-640.464 -415.377)" fill="#9e616a"/>
  <circle id="Ellipse_33" data-name="Ellipse 33" cx="9.356" cy="9.356" r="9.356" transform="translate(167.816 9.132)" fill="#9e616a"/>
  <path id="Path_6536" data-name="Path 6536" d="M831.713,433.8l1.7-.567s3.4,1.418,3.4,3.969.567,12.759.567,12.759l-7.655.851Z" transform="translate(-642.066 -399.72)" fill="#46ce04"/>
  <path id="Path_6537" data-name="Path 6537" d="M714.668,492.384h6.746l2.308-19.339.835-6.984.115-.964.617-5.17a3.567,3.567,0,0,0-5.431-3.22,3.492,3.492,0,0,0-.4.286,3.549,3.549,0,0,0-1.292,2.605l-.608,5.685Z" transform="translate(-561.213 -415.841)" fill="#9e616a"/>
  <path id="Path_6538" data-name="Path 6538" d="M730.607,447.953l-7.655-.851s.567-10.207.567-12.759,3.4-3.969,3.4-3.969l1.7.567Z" transform="translate(-567.033 -397.709)" fill="#46ce04"/>
  <path id="Path_6539" data-name="Path 6539" d="M740.35,549.263h32a62.608,62.608,0,0,0-4.132-11.256c-.281-.574-.448-.88-.448-.88s-13.609-.268-22.115,3.134a4.17,4.17,0,0,0-1.428,1.018C742.757,542.8,741.469,545.658,740.35,549.263Z" transform="translate(-579.259 -472.721)" fill="#2f2e41"/>
  <path id="Path_6540" data-name="Path 6540" d="M740.185,424.615s-.27-.145,15.877.443l6.758,1.861.9.247s-.851,17.012-3.119,20.131-1.7,4.82-1.134,5.1,1.985-.284,1.134,1.134-1.985.567-.851,1.418,1.7,3.969,1.7,3.969l-24.951,3.4s-.851-11.058-3.119-16.728a73.065,73.065,0,0,1-2.835-7.939l1.7-11.341Z" transform="translate(-572.369 -393.651)" fill="#46ce04"/>
  <path id="Path_6541" data-name="Path 6541" d="M760.5,343.216a9.216,9.216,0,0,1,18.432,0v4.162H760.5Z" transform="translate(-593.419 -329.986)" fill="#2f2e41"/>
  <path id="Path_6542" data-name="Path 6542" d="M745.756,488.426v.822a1.815,1.815,0,0,1-1.814,1.815H683.583a1.815,1.815,0,0,1-1.815-1.814v-.822a1.815,1.815,0,0,1,1.814-1.815h1.072a1.527,1.527,0,0,1-.058-.408V455.4a1.523,1.523,0,0,1,1.522-1.522h55.288a1.523,1.523,0,0,1,1.522,1.522V486.2a1.437,1.437,0,0,1-.058.408h1.072A1.815,1.815,0,0,1,745.756,488.426Z" transform="translate(-538.094 -414.223)" fill="#3f3d56"/>
  <path id="Path_6543" data-name="Path 6543" d="M785.23,496.113a3.45,3.45,0,1,1,3.45-3.45A3.45,3.45,0,0,1,785.23,496.113Zm0-6.3a2.855,2.855,0,1,0,2.855,2.855A2.855,2.855,0,0,0,785.23,489.809Z" transform="translate(-608.373 -439.056)" fill="#fff"/>
  <circle id="Ellipse_34" data-name="Ellipse 34" cx="3.152" cy="3.152" r="3.152" transform="translate(172.516 49.266)" fill="#fff"/>
  <path id="Path_6544" data-name="Path 6544" d="M387.809,326.732a7.222,7.222,0,0,1-2.045-2.485,3.36,3.36,0,0,0-.706-.987l-2.017,1.551,1.233-2.147c-3.157-1.908-9.321-.895-9.321-.895-6.413-3.415-8.767.848-9.588,3.551a5.957,5.957,0,0,1-1.664,2.546c-1.582,1.508.909,4.442.909,4.442v.207l.595,4.038A12.3,12.3,0,0,1,367.366,332a5.337,5.337,0,0,1,3.347-1.876c9.651.188,11.478.57,11.478.57s1.634.878,2.356,1.247c2.332,1.192,1.763,5.507,1.763,5.507l1.743-7.658C388.455,327.932,388.232,327.08,387.809,326.732Z" transform="translate(-314.216 -320.5)" fill="#2f2e41"/>
</svg>
