<svg xmlns="http://www.w3.org/2000/svg" xmlns:xlink="http://www.w3.org/1999/xlink" width="319.496" height="254" viewBox="0 0 319.496 254">
  <defs>
    <linearGradient id="linear-gradient" x1="0.5" y1="1" x2="0.5" gradientUnits="objectBoundingBox">
      <stop offset="0" stop-color="gray" stop-opacity="0.251"/>
      <stop offset="0.54" stop-color="gray" stop-opacity="0.122"/>
      <stop offset="1" stop-color="gray" stop-opacity="0.102"/>
    </linearGradient>
  </defs>
  <g id="Group_29" data-name="Group 29" transform="translate(0 -0.008)">
    <path id="Path_278" data-name="Path 278" d="M285.1,104.236c-20.216-.7-39.473-7.228-57.859-14.369s-36.6-15.053-56.328-18.835c-12.691-2.433-27.207-2.777-37.43,4.026-9.842,6.56-13.022,17.851-14.731,28.34-1.287,7.89-2.043,16.193,1.484,23.58,2.446,5.129,6.791,9.44,9.793,14.369,10.455,17.092,3.067,38.17-8.262,54.86-5.31,7.831-11.479,15.306-15.577,23.633s-6,17.883-2.411,26.385c3.558,8.434,12.032,14.756,21.209,19.207,18.645,9.043,40.607,11.629,62.038,13.094,47.426,3.245,95.1,1.84,142.652.434,17.6-.522,35.272-1.05,52.583-3.77,9.614-1.512,19.538-3.908,26.519-9.7,8.859-7.35,11.054-19.8,5.12-29.012-9.961-15.459-37.483-19.3-44.455-35.89-3.83-9.13.106-19.3,5.672-27.772,11.945-18.167,31.964-34.107,33.02-54.872.725-14.266-8.9-28.547-23.783-35.3-15.6-7.1-37.23-6.2-48.731,5.51C323.773,100.225,302.951,104.854,285.1,104.236Z" transform="translate(-97.73 -61.306)" fill="#46ce04" opacity="0.1"/>
    <path id="Path_279" data-name="Path 279" d="M176.7,489.421,69.783,488.9,59.16,463.982l37.564-2.727-6.547-27.319,74.3-9.63L93.329,399.573l6.285-1.493,114.4,18.664-6.3,42.634-9.005,23.43Z" transform="translate(-40.681 -273.73)" fill="#46ce04"/>
    <path id="Path_280" data-name="Path 280" d="M187,698.616s6.56-1.05,10.5,3.586c0,0-2.886,2.274-9.1-.875Z" transform="translate(-156.257 -493.883)" fill="#46ce04"/>
    <path id="Path_281" data-name="Path 281" d="M178.867,698.51s-4.186,5.151-2.124,10.886c0,0,3.411-1.365,3.783-8.318Z" transform="translate(-148.812 -493.88)" fill="#46ce04"/>
    <path id="Path_282" data-name="Path 282" d="M172.76,667.733s2.624-4.813,13.119,1.924c0,0-1.4,3.236-6.035,2.974S173.984,670.269,172.76,667.733Z" transform="translate(-146.465 -471.571)" fill="#46ce04"/>
    <path id="Path_283" data-name="Path 283" d="M157.442,670.279s-5.444-.625-5.972,11.838c0,0,3.452.715,5.9-3.227S158.82,672.737,157.442,670.279Z" transform="translate(-131.826 -474.464)" fill="#46ce04"/>
    <path id="Path_284" data-name="Path 284" d="M160.44,628.3s3.061-8.484,14.169-2.449c0,0-2.536,7.784-13.032,5.335Z" transform="translate(-137.994 -442.426)" fill="#46ce04"/>
    <path id="Path_285" data-name="Path 285" d="M149.52,589.051s5.772-8.571,16.005-.625c0,0-3.586,8.046-15.131,3.673Z" transform="translate(-130.485 -415.861)" fill="#46ce04"/>
    <path id="Path_286" data-name="Path 286" d="M145.6,551.515s6.734-7.875,16.867,0c0,0-6.385,6.909-16.867,2.012Z" transform="translate(-127.789 -390.395)" fill="#46ce04"/>
    <path id="Path_287" data-name="Path 287" d="M142.24,513.353s6.822-8.221,16.53-.437c0,0-7.7,7.259-16.53,2.361Z" transform="translate(-125.479 -363.955)" fill="#46ce04"/>
    <path id="Path_288" data-name="Path 288" d="M144.2,475.373s7.184-10.583,16.268-3.411c0,0-7.7,9.1-16.268,5.423Z" transform="translate(-126.826 -336.383)" fill="#46ce04"/>
    <path id="Path_289" data-name="Path 289" d="M149.52,437.376s7.609-10.5,16.443-2.449c0,0-9.008,9.1-16.443,4.373Z" transform="translate(-130.485 -310.543)" fill="#46ce04"/>
    <path id="Path_290" data-name="Path 290" d="M156.774,399.559s9.008-9.864,16.867-5.935c0,0-9.386,10.477-17.261,8.552Z" transform="translate(-135.202 -283.593)" fill="#46ce04"/>
    <path id="Path_291" data-name="Path 291" d="M166.1,362.15s10.4-12.082,16.443-8.046c0,0-7.659,9.371-17.18,10.308Z" transform="translate(-141.377 -256.486)" fill="#46ce04"/>
    <path id="Path_292" data-name="Path 292" d="M179.581,326.245s9.1-9.864,15.746-7.415c0,0-7.784,10.233-16.967,10.5Z" transform="translate(-150.316 -232.529)" fill="#46ce04"/>
    <path id="Path_293" data-name="Path 293" d="M194.477,290.082s10.058-9.446,14.431-7.784c0,0-7.259,10.5-14.868,9.883Z" transform="translate(-161.098 -207.542)" fill="#46ce04"/>
    <path id="Path_294" data-name="Path 294" d="M208.32,251.585s8.659-11.286,13.385-10.411c0,0-5.251,10.061-13.385,11.557Z" transform="translate(-170.918 -179.365)" fill="#46ce04"/>
    <path id="Path_295" data-name="Path 295" d="M221.605,211.06s7.653-8.649,11.788-8.631c0,0-6.041,11.557-12.1,11.451Z" transform="translate(-179.837 -152.756)" fill="#46ce04"/>
    <path id="Path_296" data-name="Path 296" d="M228.51,160.737,235.9,142.72s.369,16.286-8.334,21.359Z" transform="translate(-184.155 -111.697)" fill="#46ce04"/>
    <path id="Path_297" data-name="Path 297" d="M240.08,100.971s1.224-15.046.437-16.271c0,0,5.285,12.51-.487,22.918Z" transform="translate(-192.723 -71.801)" fill="#46ce04"/>
    <path id="Path_298" data-name="Path 298" d="M131.719,635.7s-7.665-4.751-12.629,6.872c0,0,6.822,4.529,13.531-3.908Z" transform="translate(-109.56 -450.031)" fill="#46ce04"/>
    <path id="Path_299" data-name="Path 299" d="M117.993,594.691s-9.4-4.289-13.963,7.847c0,0,7.262,5,14.818-4.779Z" transform="translate(-99.204 -421.985)" fill="#46ce04"/>
    <path id="Path_300" data-name="Path 300" d="M107.067,553.825s-6.734-7.875-16.867,0c0,0,6.385,6.909,16.867,2.012Z" transform="translate(-89.694 -391.983)" fill="#46ce04"/>
    <path id="Path_301" data-name="Path 301" d="M105.11,513.353s-6.822-8.221-16.53-.437c0,0,7.7,7.259,16.53,2.361Z" transform="translate(-88.58 -363.955)" fill="#46ce04"/>
    <path id="Path_302" data-name="Path 302" d="M110.767,471.653S105.982,459.8,95.58,464.9c0,0,5.623,10.511,14.762,8.724Z" transform="translate(-93.393 -332.363)" fill="#46ce04"/>
    <path id="Path_303" data-name="Path 303" d="M117.756,431.763S113,419.7,102.45,425.294c0,0,6.46,11.054,14.837,8.331Z" transform="translate(-98.118 -304.989)" fill="#46ce04"/>
    <path id="Path_304" data-name="Path 304" d="M137.51,383.136s-1.874-13.222-10.62-14.406c0,0,1.855,13.944,9.443,16.789Z" transform="translate(-114.923 -267.111)" fill="#46ce04"/>
    <path id="Path_305" data-name="Path 305" d="M150.9,345.466s-.731-15.93-7.962-16.486c0,0,.244,12.091,7.147,18.742Z" transform="translate(-125.96 -239.777)" fill="#46ce04"/>
    <path id="Path_306" data-name="Path 306" d="M164.728,309.275s-2.155-13.247-9.058-14.865c0,0,.856,12.829,8.374,18.117Z" transform="translate(-134.714 -216.005)" fill="#46ce04"/>
    <path id="Path_307" data-name="Path 307" d="M187.3,273.157s-.072-13.8-4.289-15.827c0,0-2.614,12.494,3.067,17.589Z" transform="translate(-153.1 -190.508)" fill="#46ce04"/>
    <path id="Path_308" data-name="Path 308" d="M198.057,238.422s-.59-14.209-4.957-16.212c0,0-1.493,11.245,4.3,17.142Z" transform="translate(-160.333 -166.358)" fill="#46ce04"/>
    <path id="Path_309" data-name="Path 309" d="M215.091,202.279s-.025-11.557-3.142-14.269c0,0-3.1,12.66,1.515,16.593Z" transform="translate(-172.713 -142.841)" fill="#46ce04"/>
    <path id="Path_310" data-name="Path 310" d="M220.182,156.235,217.149,137s-4.12,15.762,3.177,22.709Z" transform="translate(-176.192 -107.764)" fill="#46ce04"/>
    <path id="Path_311" data-name="Path 311" d="M214.509,105.739s-7.784-12.932-7.625-14.369c0,0,.828,13.553,10.62,20.3Z" transform="translate(-169.929 -76.387)" fill="#46ce04"/>
    <path id="Path_312" data-name="Path 312" d="M210.73,81.434s-7.347-18.367-10.67-19.854c0,0,10.5,5.335,11.282,19.329Z" transform="translate(-165.238 -55.902)" fill="#46ce04"/>
    <path id="Path_313" data-name="Path 313" d="M220.063,158.257l-.5-.153c6.2-20.219,7.747-33.11,4.357-36.343l.359-.381C227.872,124.791,226.413,137.542,220.063,158.257Z" transform="translate(-178.647 -97.023)" fill="#46ce04"/>
    <path id="Path_314" data-name="Path 314" d="M164.873,283.529l-.743-.266c.659-1.852,1.368-3.733,2.112-5.585,6.472-16.13,11.982-31.136,15.515-42.656l.647-.312c-3.539,11.542-8.952,27.122-15.431,43.274C166.232,279.8,165.526,281.673,164.873,283.529Z" transform="translate(-140.531 -174.953)" fill="#46ce04"/>
    <path id="Path_315" data-name="Path 315" d="M163.818,498.423c-.1-.109-10.149-11.426-17.155-30.746a113.755,113.755,0,0,1-6.769-35.228c-.481-15.034,2.674-31.82,8.078-47.07l.587.687c-12.132,34.225-7.312,63.553-.918,81.214,6.931,19.145,16.867,30.336,16.964,30.449Z" transform="translate(-123.832 -278.56)" fill="#444053"/>
    <path id="Path_316" data-name="Path 316" d="M574.191,670.36s-7.081,8.643-1.459,21.709l-56.537,24.52-5.426,1.137-2.5-10.933,1.671-13.8v-7.54Z" transform="translate(-377.175 -474.523)" fill="#d5d6db"/>
    <path id="Path_317" data-name="Path 317" d="M59.16,577.656l78.253-14.266L241.1,579.908l-64.4,23.186Z" transform="translate(-40.681 -387.404)" fill="#6c63ff"/>
    <path id="Path_318" data-name="Path 318" d="M59.16,577.656l78.253-14.266L241.1,579.908l-64.4,23.186Z" transform="translate(-40.681 -387.404)" fill="#6c63ff"/>
    <path id="Path_319" data-name="Path 319" d="M141.255,652.47s-7.319,13.866,1.115,26.672l116.042,25.145s-7.2-11.045.372-26.376Z" transform="translate(-122.776 -462.221)" fill="#6c63ff"/>
    <path id="Path_320" data-name="Path 320" d="M141.255,652.47s-7.319,13.866,1.115,26.672l116.042,25.145s-7.2-11.045.372-26.376Z" transform="translate(-122.776 -462.221)" opacity="0.1"/>
    <path id="Path_321" data-name="Path 321" d="M154.718,667.86s-4.183,10.146,0,16.711" transform="translate(-132.781 -472.804)" opacity="0.1"/>
    <path id="Path_322" data-name="Path 322" d="M267.352,757.5l64.784-27.644s3.623.781,1.281,3.436S268.6,760.159,268.6,760.159l-117.291-27.8Z" transform="translate(-131.716 -515.438)" fill="#6c63ff"/>
    <path id="Path_323" data-name="Path 323" d="M267.352,757.5l64.784-27.644s3.623.781,1.281,3.436S268.6,760.159,268.6,760.159l-117.291-27.8Z" transform="translate(-131.716 -515.438)" opacity="0.1"/>
    <path id="Path_324" data-name="Path 324" d="M499.7,742.86s-6.247,7.5,0,18.742" transform="translate(-369.371 -524.377)" opacity="0.1"/>
    <rect id="Rectangle_44" data-name="Rectangle 44" width="29.54" height="0.312" transform="translate(132.55 227.704) rotate(-18.45)" opacity="0.1"/>
    <rect id="Rectangle_45" data-name="Rectangle 45" width="35.993" height="0.312" transform="translate(132.54 230.219) rotate(-20.82)" opacity="0.1"/>
    <rect id="Rectangle_46" data-name="Rectangle 46" width="41.719" height="0.312" transform="translate(132.728 233.183) rotate(-22.26)" opacity="0.1"/>
    <rect id="Rectangle_47" data-name="Rectangle 47" width="48.022" height="0.312" transform="translate(133.178 235.797) rotate(-24.31)" opacity="0.1"/>
    <rect id="Rectangle_48" data-name="Rectangle 48" width="52.523" height="0.312" transform="matrix(0.916, -0.401, 0.401, 0.916, 133.525, 237.069)" opacity="0.1"/>
    <rect id="Rectangle_49" data-name="Rectangle 49" width="62.853" height="0.312" transform="translate(134.252 239.206) rotate(-23.36)" opacity="0.1"/>
    <path id="Path_325" data-name="Path 325" d="M152.23,588.5l54.975-11.557,33.491,6.4-45.049,14.525Z" transform="translate(-104.679 -396.721)" fill="#fff" opacity="0.3"/>
    <path id="Path_326" data-name="Path 326" d="M588.412,659.69s2.843,1.146,1.174,2.917S524,682.877,524,682.877Z" transform="translate(-387.992 -467.186)" fill="#6c63ff"/>
    <path id="Path_327" data-name="Path 327" d="M673.487,574.18s-7.078,8.64-1.456,21.709l-56.537,24.52-5.426,1.143-2.5-10.933,1.7-13.794v-7.55Z" transform="translate(-445.458 -408.386)" fill="#d5d6db"/>
    <path id="Path_328" data-name="Path 328" d="M158.46,481.472l78.249-14.262L340.4,483.728,276,506.914Z" transform="translate(-108.963 -321.267)" fill="#001e43"/>
    <path id="Path_329" data-name="Path 329" d="M240.51,556.29s-7.322,13.866,1.112,26.672l116.042,25.145s-7.2-11.055.384-26.379Z" transform="translate(-191.026 -396.084)" fill="#001e43"/>
    <path id="Path_330" data-name="Path 330" d="M240.51,556.29s-7.322,13.866,1.112,26.672l116.042,25.145s-7.2-11.055.384-26.379l-36.7-7.943Z" transform="translate(-191.026 -396.084)" opacity="0.1"/>
    <path id="Path_331" data-name="Path 331" d="M254.011,571.68s-4.179,10.142,0,16.711" transform="translate(-201.059 -406.667)" opacity="0.1"/>
    <path id="Path_332" data-name="Path 332" d="M366.642,661.324l64.787-27.644s3.62.781,1.278,3.436-64.815,26.863-64.815,26.863L250.6,636.179Z" transform="translate(-199.991 -449.301)" fill="#3a3768"/>
    <path id="Path_333" data-name="Path 333" d="M366.642,661.324l64.787-27.644s3.62.781,1.278,3.436-64.815,26.863-64.815,26.863L250.6,636.179Z" transform="translate(-199.991 -449.301)" opacity="0.1"/>
    <path id="Path_334" data-name="Path 334" d="M598.988,646.68s-6.247,7.5,0,18.742" transform="translate(-437.647 -458.24)" opacity="0.1"/>
    <rect id="Rectangle_50" data-name="Rectangle 50" width="29.54" height="0.312" transform="translate(163.567 197.665) rotate(-18.45)" opacity="0.1"/>
    <rect id="Rectangle_51" data-name="Rectangle 51" width="35.993" height="0.312" transform="translate(163.56 200.178) rotate(-20.82)" opacity="0.1"/>
    <rect id="Rectangle_52" data-name="Rectangle 52" width="41.719" height="0.312" transform="translate(163.744 203.138) rotate(-22.26)" opacity="0.1"/>
    <rect id="Rectangle_53" data-name="Rectangle 53" width="48.022" height="0.312" transform="translate(164.198 205.753) rotate(-24.31)" opacity="0.1"/>
    <rect id="Rectangle_54" data-name="Rectangle 54" width="52.523" height="0.312" transform="matrix(0.916, -0.401, 0.401, 0.916, 164.541, 207.021)" opacity="0.1"/>
    <rect id="Rectangle_55" data-name="Rectangle 55" width="62.853" height="0.312" transform="translate(165.269 209.157) rotate(-23.36)" opacity="0.1"/>
    <path id="Path_335" data-name="Path 335" d="M251.53,492.317l54.976-11.557,33.491,6.4-45.049,14.525Z" transform="translate(-172.962 -330.584)" fill="#fff" opacity="0.45"/>
    <path id="Path_336" data-name="Path 336" d="M687.733,563.51s2.839,1.146,1.174,2.914-65.577,20.269-65.577,20.269Z" transform="translate(-456.295 -401.049)" fill="#3a3768"/>
    <path id="Path_337" data-name="Path 337" d="M682.908,464.15s-7.081,15.515-1.459,28.581l-56.537,17.648-5.413,1.146L617,500.593l1.671-13.8v-7.55Z" transform="translate(-451.942 -332.725)" fill="#d5d6db"/>
    <path id="Path_338" data-name="Path 338" d="M167.89,371.446l78.253-14.266L349.834,373.7l-64.406,23.187Z" transform="translate(-115.448 -245.606)" fill="#6c63ff"/>
    <path id="Path_339" data-name="Path 339" d="M249.966,446.26s-7.331,13.866,1.1,26.672L367.11,498.078s-7.2-11.054.381-26.376Z" transform="translate(-197.523 -320.423)" fill="#6c63ff"/>
    <path id="Path_340" data-name="Path 340" d="M249.966,446.26s-7.331,13.866,1.1,26.672L367.11,498.078s-7.2-11.054.381-26.376Z" transform="translate(-197.523 -320.423)" opacity="0.1"/>
    <path id="Path_341" data-name="Path 341" d="M263.448,461.65s-4.183,10.146,0,16.711" transform="translate(-207.548 -331.006)" opacity="0.1"/>
    <path id="Path_342" data-name="Path 342" d="M376.082,556.8l64.784-20.772s3.623.781,1.281,3.436-64.815,19.991-64.815,19.991L260.04,531.65Z" transform="translate(-206.483 -379.141)" fill="#6c63ff"/>
    <path id="Path_343" data-name="Path 343" d="M376.082,556.8l64.784-20.772s3.623.781,1.281,3.436-64.815,19.991-64.815,19.991L260.04,531.65Z" transform="translate(-206.483 -379.141)" opacity="0.1"/>
    <path id="Path_344" data-name="Path 344" d="M608.428,536.65s-6.247,7.5,0,18.742" transform="translate(-444.138 -382.579)" opacity="0.1"/>
    <rect id="Rectangle_56" data-name="Rectangle 56" width="29.54" height="0.312" transform="translate(166.516 163.295) rotate(-18.45)" opacity="0.1"/>
    <rect id="Rectangle_57" data-name="Rectangle 57" width="35.993" height="0.312" transform="translate(166.508 165.81) rotate(-20.82)" opacity="0.1"/>
    <rect id="Rectangle_58" data-name="Rectangle 58" width="41.719" height="0.312" transform="translate(166.688 168.772) rotate(-22.26)" opacity="0.1"/>
    <rect id="Rectangle_59" data-name="Rectangle 59" width="48.022" height="0.312" transform="translate(167.147 171.383) rotate(-24.31)" opacity="0.1"/>
    <rect id="Rectangle_60" data-name="Rectangle 60" width="52.523" height="0.312" transform="matrix(0.916, -0.401, 0.401, 0.916, 167.491, 172.654)" opacity="0.1"/>
    <rect id="Rectangle_61" data-name="Rectangle 61" width="62.853" height="0.312" transform="translate(168.219 174.793) rotate(-23.36)" opacity="0.1"/>
    <path id="Path_345" data-name="Path 345" d="M260.96,382.287l54.975-11.557,33.491,6.4-45.049,14.525Z" transform="translate(-179.446 -254.923)" fill="#fff" opacity="0.3"/>
    <path id="Path_346" data-name="Path 346" d="M697.163,453.48s2.842,1.146,1.174,2.917-65.577,20.269-65.577,20.269Z" transform="translate(-462.78 -325.388)" fill="#6c63ff"/>
    <path id="Path_347" data-name="Path 347" d="M375.675,149.886s-11.87-.715-10.483,7.612a2.031,2.031,0,0,0,1.056,2.14s.022-.625,1.218-.409a5.325,5.325,0,0,0,1.293.062,2.692,2.692,0,0,0,1.577-.65h0s3.339-1.381,4.639-6.841c0,0,.962-1.19.937-1.5l-2.012.856a3.6,3.6,0,0,1,.147,2.649s-.066-2.6-.453-2.536c-.078,0-1.04.5-1.04.5s1.178,2.521.287,4.351c0,0,.337-3.1-.656-4.17l-1.412.825s1.378,2.6.444,4.726c0,0,.241-3.258-.74-4.526l-1.281,1s1.3,2.564.506,4.326c0,0-.1-3.792-.781-4.079a7.72,7.72,0,0,0-1.29,1.393s.887,1.874.334,2.846c0,0-.334-2.527-.625-2.539a8.409,8.409,0,0,0-1.231,2.811,6.078,6.078,0,0,1,.959-2.98,3.345,3.345,0,0,0-1.705.884s.172-1.184,1.983-1.287a7.677,7.677,0,0,1,1.168-1.346,7.312,7.312,0,0,0-2.892.331s.962-1.115,3.22-.625l1.249-1.031a10.778,10.778,0,0,0-3.374.034s1.159-.987,3.714-.269l1.378-.822a12.516,12.516,0,0,0-3.224-.278,4.948,4.948,0,0,1,3.627.056l.981-.44s-1.477-.291-1.912-.337-.456-.166-.456-.166a5.157,5.157,0,0,1,2.78.312A12.4,12.4,0,0,0,375.675,149.886Z" transform="translate(-278.712 -116.615)" fill="#46ce04"/>
    <path id="Path_348" data-name="Path 348" d="M910.275,259.466s-11.87-.715-10.483,7.612a2.031,2.031,0,0,0,1.056,2.14s.022-.625,1.218-.409a5.5,5.5,0,0,0,1.293.063,2.683,2.683,0,0,0,1.562-.65h0s3.342-1.381,4.639-6.841c0,0,.962-1.19.937-1.5l-2.005.856a3.6,3.6,0,0,1,.147,2.649s-.066-2.6-.45-2.536c-.078,0-1.043.5-1.043.5s1.178,2.521.29,4.351c0,0,.337-3.1-.659-4.17l-1.412.825s1.377,2.6.444,4.726c0,0,.24-3.258-.74-4.526l-1.278,1s1.293,2.564.5,4.326c0,0-.1-3.792-.781-4.079a7.835,7.835,0,0,0-1.29,1.393s.887,1.874.337,2.846c0,0-.337-2.527-.625-2.539a8.407,8.407,0,0,0-1.231,2.811,6.059,6.059,0,0,1,.962-2.98,3.361,3.361,0,0,0-1.709.884s.175-1.184,1.984-1.287a7.8,7.8,0,0,1,1.168-1.349,7.342,7.342,0,0,0-2.893.334s.962-1.115,3.22-.625l1.249-1.031a10.781,10.781,0,0,0-3.374.034s1.156-.987,3.714-.269l1.374-.822a12.516,12.516,0,0,0-3.223-.278,4.948,4.948,0,0,1,3.626.056l.984-.44s-1.481-.29-1.915-.337-.456-.166-.456-.166a5.119,5.119,0,0,1,2.78.312A12.606,12.606,0,0,0,910.275,259.466Z" transform="translate(-646.324 -191.966)" fill="#6c63ff" opacity="0.1"/>
    <path id="Path_349" data-name="Path 349" d="M434.134,299.425s-5.173-10.723-11.757-5.438a2.029,2.029,0,0,0-1.353,1.965s.547-.284.937.865a5.541,5.541,0,0,0,.575,1.156,2.7,2.7,0,0,0,1.34,1.062h0s2.833,2.243,8.234.712a5.344,5.344,0,0,0,1.755.078l-1.724-1.334a3.626,3.626,0,0,1-2.243,1.418s2.236-1.321,2-1.627c-.05-.062-.937-.665-.937-.665s-1.627,2.258-3.658,2.374c0,0,2.874-1.218,3.317-2.608l-1.406-.831s-1.6,2.474-3.911,2.693c0,0,2.961-1.378,3.589-2.852l-1.493-.625s-1.609,2.38-3.533,2.552c0,0,3.261-1.94,3.18-2.674a7.918,7.918,0,0,0-1.846-.447s-1.193,1.684-2.318,1.684c0,0,2.04-1.527,1.915-1.774a8.24,8.24,0,0,0-3.061.312,6.081,6.081,0,0,1,3.07-.625,3.365,3.365,0,0,0-1.606-1.059s1.118-.425,2.09,1.1a7.7,7.7,0,0,1,1.746.362,7.333,7.333,0,0,0-1.7-2.358s1.443.29,2.1,2.5l1.515.6a10.419,10.419,0,0,0-1.674-2.927s1.424.528,2.046,3.124l1.387.8a12.359,12.359,0,0,0-1.328-2.949,4.95,4.95,0,0,1,1.718,3.192l.865.643s-.469-1.434-.625-1.834-.078-.481-.078-.481a5.126,5.126,0,0,1,1.087,2.577A11.654,11.654,0,0,0,434.134,299.425Z" transform="translate(-317.18 -214.708)" fill="#6c63ff" opacity="0.1"/>
    <path id="Path_350" data-name="Path 350" d="M817.915,195.805s-5.169-10.723-11.757-5.438a2.033,2.033,0,0,0-1.352,1.965s.55-.281.937.865a5.415,5.415,0,0,0,.578,1.159,2.68,2.68,0,0,0,1.337,1.059h0s2.836,2.243,8.234.715a5.368,5.368,0,0,0,1.759.075l-1.715-1.337a3.624,3.624,0,0,1-2.24,1.421s2.233-1.324,1.993-1.631c-.05-.062-.937-.665-.937-.665s-1.624,2.258-3.658,2.374c0,0,2.877-1.218,3.32-2.605l-1.428-.825s-1.6,2.471-3.911,2.693c0,0,2.961-1.381,3.592-2.855l-1.5-.625s-1.609,2.383-3.53,2.552c0,0,3.258-1.94,3.177-2.671a7.726,7.726,0,0,0-1.843-.447s-1.193,1.68-2.321,1.68c0,0,2.043-1.527,1.918-1.774a8.259,8.259,0,0,0-3.064.312,6.078,6.078,0,0,1,3.07-.625,3.345,3.345,0,0,0-1.6-1.059s1.118-.425,2.09,1.1a7.733,7.733,0,0,1,1.746.365,7.31,7.31,0,0,0-1.7-2.361s1.443.294,2.1,2.514l1.518.6a10.422,10.422,0,0,0-1.674-2.93s1.424.528,2.043,3.124l1.39.8a12.475,12.475,0,0,0-1.331-2.949,4.934,4.934,0,0,1,1.718,3.192l.865.643s-.465-1.434-.625-1.834-.078-.478-.078-.478a5.138,5.138,0,0,1,1.084,2.577A12,12,0,0,0,817.915,195.805Z" transform="translate(-581.083 -143.455)" fill="#6c63ff" opacity="0.1"/>
    <path id="Path_351" data-name="Path 351" d="M870.784,365.609s-5.169-10.726-11.767-5.441a2.033,2.033,0,0,0-1.353,1.965s.55-.281.937.865a5.418,5.418,0,0,0,.575,1.159,2.681,2.681,0,0,0,1.337,1.059h0s2.836,2.246,8.237.715c0,0,1.505.259,1.755.075l-1.724-1.334a3.624,3.624,0,0,1-2.243,1.421s2.233-1.324,1.993-1.63c-.05-.062-.937-.665-.937-.665s-1.624,2.258-3.658,2.377c0,0,2.877-1.221,3.32-2.608l-1.409-.831s-1.6,2.474-3.911,2.693c0,0,2.961-1.381,3.592-2.855l-1.5-.625s-1.609,2.38-3.53,2.552c0,0,3.261-1.94,3.18-2.674a7.757,7.757,0,0,0-1.846-.447s-1.193,1.681-2.321,1.681c0,0,2.043-1.527,1.918-1.774a8.259,8.259,0,0,0-3.064.312,6.1,6.1,0,0,1,3.074-.625,3.339,3.339,0,0,0-1.606-1.059s1.118-.428,2.09,1.1a7.705,7.705,0,0,1,1.746.362,7.368,7.368,0,0,0-1.7-2.361s1.443.294,2.1,2.514l1.515.6a10.378,10.378,0,0,0-1.674-2.927s1.424.525,2.043,3.124l1.39.8a12.471,12.471,0,0,0-1.331-2.949,4.946,4.946,0,0,1,1.721,3.2l.865.625s-.469-1.434-.625-1.834-.078-.478-.078-.478a5.107,5.107,0,0,1,1.084,2.577A12.649,12.649,0,0,0,870.784,365.609Z" transform="translate(-617.432 -260.216)" fill="#6c63ff" opacity="0.1"/>
    <ellipse id="Ellipse_12" data-name="Ellipse 12" cx="7.181" cy="0.803" rx="7.181" ry="0.803" transform="translate(55.9 243.34)" fill="#6c63ff" opacity="0.1"/>
    <ellipse id="Ellipse_13" data-name="Ellipse 13" cx="7.181" cy="0.803" rx="7.181" ry="0.803" transform="translate(8.824 229.697)" fill="#6c63ff" opacity="0.1"/>
    <ellipse id="Ellipse_14" data-name="Ellipse 14" cx="7.181" cy="0.803" rx="7.181" ry="0.803" transform="translate(91.784 252.402)" fill="#6c63ff" opacity="0.1"/>
    <ellipse id="Ellipse_15" data-name="Ellipse 15" cx="7.181" cy="0.803" rx="7.181" ry="0.803" transform="translate(275.671 232.664)" fill="#6c63ff" opacity="0.1"/>
    <ellipse id="Ellipse_16" data-name="Ellipse 16" cx="7.181" cy="0.803" rx="7.181" ry="0.803" transform="translate(215.913 228.769)" fill="#6c63ff" opacity="0.1"/>
    <ellipse id="Ellipse_17" data-name="Ellipse 17" cx="8.493" cy="1.459" rx="8.493" ry="1.459" transform="translate(175.943 246.455)" fill="#6c63ff" opacity="0.1"/>
    <path id="Path_352" data-name="Path 352" d="M674.728,790.14s-11.826,6.11-5.716,13.307a2.286,2.286,0,0,0,2.237,1.453s-.331-.606.937-1.09a6.1,6.1,0,0,0,1.278-.678,3,3,0,0,0,1.143-1.528h0s2.418-3.236.544-9.224c0,0,.244-1.693.031-1.968l-1.437,1.971a4.024,4.024,0,0,1,1.656,2.461s-1.562-2.458-1.874-2.186c-.069.056-.712,1.078-.712,1.078s2.574,1.746,2.764,4.014c0,0-1.449-3.177-3.014-3.63l-.9,1.6s2.811,1.712,3.124,4.286c0,0-1.634-3.264-3.3-3.923l-.659,1.69s2.711,1.724,2.961,3.867c0,0-2.268-3.583-3.083-3.47a8.661,8.661,0,0,0-.444,2.077s1.915,1.281,1.949,2.539c0,0-1.768-2.233-2.04-2.087a9.411,9.411,0,0,0,.431,3.414,6.739,6.739,0,0,1-.784-3.414,3.748,3.748,0,0,0-1.134,1.824s-.509-1.234,1.168-2.371a8.639,8.639,0,0,1,.353-1.962,8.234,8.234,0,0,0-2.586,1.974s.284-1.621,2.746-2.427l.625-1.712a11.642,11.642,0,0,0-3.22,1.962s.547-1.609,3.414-2.38l.85-1.562a14.339,14.339,0,0,0-3.255,1.562s.828-1.384,3.517-2.021l.69-.984s-1.587.565-2.03.768-.531.1-.531.1a5.743,5.743,0,0,1,2.846-1.293A13.925,13.925,0,0,0,674.728,790.14Z" transform="translate(-486.502 -556.889)" fill="#46ce04"/>
    <path id="Path_353" data-name="Path 353" d="M570.312,161.276c-2.043-5.551-13.288-6.072-18.167-4.657a145.856,145.856,0,0,1-14.681,2.718l-.253-.241c.506-.15.518-.519.456-1.065a16.686,16.686,0,0,1,.031-2.162,5.322,5.322,0,0,0,4.523-1.015h0c2.811-1.249,2.055-6.6,2.593-8.059.4-1.093.837-7.534,1.031-10.745h.041l.022-1.078c.028-.465.041-.737.041-.737s.275-7.853.812-9.443c.5-1.462.906-8.827.968-10v-.153l-.041-.681c.028-.5.041-1.05.038-1.631,0-2.671-.278-6.035-.312-6.578v-.284c.022-1.14-.122-6.85-4.979-9.008-1.79-.8-3.942-1.752-6.025-2.68-.537-4.639-1.765-9.252-1.659-13.925,0-.7.063-1.406.131-2.105,0,.2-.022.409-.025.625v1.362c.184-5.844,2.393-11.72,2.187-17.439-.019.559-.059,1.121-.112,1.684a18.155,18.155,0,0,0-.6-5.744,3.4,3.4,0,0,0-.981-1.78,4.039,4.039,0,0,0-1.712-.678,34.425,34.425,0,0,0-4.495-.837,6.943,6.943,0,0,0-1.012-1.965c-3.167-4.348-7.859-8.434-13.407-9.371-2.783-.469-5.985-.078-7.878,1.912a5.912,5.912,0,0,0-.556.562c-1.018,1.215-1.456,2.811-2.5,4.023-.069.081-.147.156-.222.234-2.043,1.827-5.226,2.208-7.5,3.848a8.995,8.995,0,0,0-1.121.978A19.015,19.015,0,0,0,492.5,58.14a12.349,12.349,0,0,0-2.4,4.648c-.653,3.436,1.687,6.694,2.121,10.152.968,7.737-7.593,14.6-5.972,22.237a10.183,10.183,0,0,0,2.755,4.945c-3.339,3.024-6.182,5.957-6.182,5.957v.175H482.3l.053.625H482.3l.29,3.389-.29,4.935v.465h.019c.1,1.809.481,8.312.937,9.683.537,1.59.809,9.443.809,9.443s.594,11.1,1.137,12.566-.228,6.8,2.593,8.059h0a5.935,5.935,0,0,0,2.833,1.174c-.144,1.168-.053,2.015.412,2.28a1.362,1.362,0,0,0,.656.187,6.969,6.969,0,0,0-.509.89,13.233,13.233,0,0,1-3.274-.772c-3.03-1.249-13.085-4.061-16.005-2.083s-9.949,3.77-6.7,11.729,4.757,8.159,4.757,8.159a11.557,11.557,0,0,1,2.6,2.608c.975,1.465,10.055,4.817,12.326,4.817a22.234,22.234,0,0,1,2.889.144s-2.465,2.162-2.136,3.417-.75,11.307-.75,11.307,2.5,2.518,3.567-.784l.037.05c.2.272,1.281,1.5,3.314-.05a18.582,18.582,0,0,1,2.643-1.674l9.846-1.393a27.871,27.871,0,0,1,3.083-.022,6.442,6.442,0,0,0,4.061-1.512c2.04.775,4.332,1.621,5.423,1.93,2.211.625,12.376,3.352,14.753,2.5a3.3,3.3,0,0,0,1.281-.912l2.268.072-1.062.212s2.068.034,4.879.072l-.119.069,3.526-.031c5.16.047,10.958.062,11.72-.109a82.333,82.333,0,0,1,9.221,0h.509s6.813-1.359,4-8.271c-2.161-5.31-8.805-6.853-11.754-7.278.831-.166,1.546-.294,2.021-.369,2.058-.312,6.057-2.187,6.382-2.827s3.677-2.5,4.542-3.558S572.364,166.826,570.312,161.276Zm-56.428,15.534-.334.109-.225.075-.431.425c-.344-.231-.712-.475-1.1-.725C512.475,176.734,513.172,176.775,513.884,176.809Zm29.771,8.8Z" transform="translate(-346.986 -43.42)" fill="url(#linear-gradient)"/>
    <path id="Path_354" data-name="Path 354" d="M686.65,280.193s4.779,12.494,7.5,11.245,1.98-6.56,2.5-8.015,1.093-12.494,1.093-12.494.262-7.809.781-9.39c.481-1.452.871-8.777.937-9.93v-.153l-.515-9.058-2.917-.728-6.766,2.5-.937,5.351-.365,2.09-.156.89Z" transform="translate(-499.836 -179.739)" fill="#be6f72"/>
    <path id="Path_355" data-name="Path 355" d="M691.69,358.3s4.56,3.733,5.935,4.061,2.218,3.239,2.218,3.239" transform="translate(-503.302 -259.939)" opacity="0.1"/>
    <path id="Path_356" data-name="Path 356" d="M538.807,281.943s-4.779,12.494-7.5,11.245-1.98-6.56-2.5-8.015-1.093-12.494-1.093-12.494-.262-7.809-.781-9.39c-.481-1.452-.871-8.777-.937-9.93v-.153l.518-9.058,2.918-.728,6.766,2.5.937,5.351.365,2.09.156.89Z" transform="translate(-389.367 -180.943)" fill="#be6f72"/>
    <rect id="Rectangle_62" data-name="Rectangle 62" width="10.667" height="16.627" transform="translate(169.893 34.137)" fill="#3e373a"/>
    <rect id="Rectangle_63" data-name="Rectangle 63" width="10.667" height="16.627" transform="translate(169.893 34.137)" opacity="0.1"/>
    <path id="Path_357" data-name="Path 357" d="M555.29,404.4s-3.645,4.008-2.293,4.735,10.1,14.369,10.1,14.369,28.737,3.539,34.157-1.771,5.31-14.8,5.31-14.8-4.354.937-4.829.428-3.083-2.964-3.083-2.964S557.789,402.165,555.29,404.4Z" transform="translate(-407.725 -290.957)" fill="#4b4b5b"/>
    <path id="Path_358" data-name="Path 358" d="M555.29,404.4s-3.645,4.008-2.293,4.735,10.1,14.369,10.1,14.369,28.737,3.539,34.157-1.771,5.31-14.8,5.31-14.8-4.354.937-4.829.428-3.083-2.964-3.083-2.964S557.789,402.165,555.29,404.4Z" transform="translate(-407.725 -290.957)" opacity="0.02"/>
    <path id="Path_359" data-name="Path 359" d="M589.807,181.131l-9.371,7.5-2.833.206-1.04.075-17.47,1.281-18.117-1.324-2.7-.2-3.436-.25-7.184-6.872a123.03,123.03,0,0,1,9.539-9.124,19.571,19.571,0,0,1,4.623-3.089l.206-.072a5.142,5.142,0,0,0,1.98-1.381c3.517-3.627,6.769-12.576,6.769-12.576s15.515-8.015,13.641,2.5,6.975,7.915,6.975,7.915l2.917,1.331,1.153.528,2.939,1.346,6.631,3.042C590.238,174.362,589.807,181.131,589.807,181.131Z" transform="translate(-390.509 -118.341)" fill="#be6f72"/>
    <circle id="Ellipse_18" data-name="Ellipse 18" cx="13.953" cy="13.953" r="13.953" transform="translate(153.903 17.619)" opacity="0.1"/>
    <path id="Path_360" data-name="Path 360" d="M588.688,228.188H526v-.153l.518-9.058a123.034,123.034,0,0,1,9.539-9.124l39.357-1.562,1.831-1.93,6.631,3.042c5.207,2.393,4.789,9.162,4.789,9.162S589.378,226.407,588.688,228.188Z" transform="translate(-389.367 -155.459)" opacity="0.1"/>
    <path id="Path_361" data-name="Path 361" d="M588.688,227.188H526v-.153l.518-9.058a123.032,123.032,0,0,1,9.539-9.124l39.357-1.562,1.831-1.93,6.631,3.042c5.207,2.393,4.789,9.162,4.789,9.162S589.378,225.407,588.688,227.188Z" transform="translate(-389.367 -154.771)" fill="#e7c7ca"/>
    <path id="Path_362" data-name="Path 362" d="M585.195,187.912s9.889,12.6,23.062-.259,1.459,28.684,1.459,28.684L581.29,219.71Z" transform="translate(-427.387 -140.896)" opacity="0.1"/>
    <path id="Path_363" data-name="Path 363" d="M585.195,189.912s9.889,12.6,23.062-.259,1.459,28.684,1.459,28.684L581.29,221.71Z" transform="translate(-427.387 -142.272)" fill="#e7c7ca"/>
    <path id="Path_364" data-name="Path 364" d="M591.867,201.865l1.046,15.958,1.121,5.31.856,4.061s2.187,31.236,1.562,32.8.312,2.811.444,3.642-.131,2.917-.028,3.855,0,1.353-2.393,1.018-5.729-.915-5.729-.915-8.434.625-11.348-.415-8.434-1.043-8.434-1.043-8.331.209-11.036-.1-4.167,3.333-5.935,2.29,2.08-11.139,3.33-14.056-1.665-10.308-1.665-10.308l3.748-20.794.834-4.714V203.63l.206-.072a5.141,5.141,0,0,0,1.98-1.381l.937,14.912,29.362,1.043V201.35" transform="translate(-406.928 -152.014)" opacity="0.1"/>
    <path id="Path_365" data-name="Path 365" d="M591.867,199.865l1.046,15.959,1.121,5.31.856,4.061s2.187,31.236,1.562,32.8.312,2.811.444,3.642-.131,2.917-.028,3.855,0,1.353-2.393,1.018-5.729-.915-5.729-.915-8.434.625-11.348-.415-8.434-1.043-8.434-1.043-8.331.209-11.036-.1-4.167,3.333-5.935,2.29,2.08-11.139,3.33-14.056-1.665-10.308-1.665-10.308l3.748-20.794.834-4.714V201.63l.206-.072a5.142,5.142,0,0,0,1.98-1.381l.937,14.912,29.362,1.043V199.35" transform="translate(-406.928 -150.638)" fill="#e7c7ca"/>
    <path id="Path_366" data-name="Path 366" d="M585.626,61.978a3.442,3.442,0,0,0-.937-1.768,3.836,3.836,0,0,0-1.649-.675A32.587,32.587,0,0,0,578.7,58.7a6.941,6.941,0,0,0-.937-1.946c-3.061-4.323-7.59-8.4-12.919-9.321-2.789-.484-6.022-.05-7.809,2.149-.981,1.209-1.4,2.811-2.393,4-1.909,2.305-5.354,2.589-7.759,4.373a14.374,14.374,0,0,0-3.124,3.614,12.4,12.4,0,0,0-2.308,4.62c-.625,3.408,1.627,6.656,2.043,10.1.937,7.693-7.309,14.519-5.751,22.109.909,4.426,5,7.544,9.227,9.124,1.49.559,3.192,1.115,3.889,2.546.312.625.365,1.346.659,1.977.987,2.105,4.233,2.187,5.975.653s2.293-4.014,2.5-6.328c.837-10.108-3.211-20.094-2.739-30.227.141-3.064,1-6.541,3.748-7.928,3.7-1.874,8.14,1.249,12.207.653a24.217,24.217,0,0,1,1.168,14.778c-.647,2.7-1.765,5.31-1.846,8.09-.122,4.232,2.162,8.1,4.136,11.842a6.3,6.3,0,0,1,.834,2.283,5.5,5.5,0,0,1-.447,2.39c-1.115,3-3.039,5.788-3.258,8.983a1.452,1.452,0,0,0,.234,1.068,1.343,1.343,0,0,0,.806.362c3.373.578,6.291-2.411,7.937-5.413a25.377,25.377,0,0,0,3.13-10.783c.341-6.36-1.94-12.616-1.8-18.982C584.27,76.247,587.54,68.959,585.626,61.978Z" transform="translate(-397.31 -46.055)" opacity="0.1"/>
    <path id="Path_367" data-name="Path 367" d="M586.626,60.978a3.442,3.442,0,0,0-.937-1.768,3.836,3.836,0,0,0-1.649-.675A32.582,32.582,0,0,0,579.7,57.7a6.937,6.937,0,0,0-.937-1.946c-3.061-4.323-7.59-8.4-12.919-9.321-2.789-.484-6.022-.05-7.809,2.149-.981,1.209-1.4,2.811-2.393,4-1.909,2.305-5.354,2.589-7.759,4.373a14.375,14.375,0,0,0-3.124,3.614,12.4,12.4,0,0,0-2.308,4.62c-.625,3.408,1.627,6.656,2.043,10.1.937,7.693-7.309,14.519-5.751,22.109.909,4.426,5,7.544,9.227,9.124,1.49.559,3.192,1.115,3.889,2.546.312.625.365,1.346.659,1.977.987,2.105,4.232,2.187,5.975.653s2.293-4.014,2.5-6.328c.837-10.108-3.211-20.094-2.739-30.227.141-3.064,1-6.541,3.748-7.928,3.7-1.874,8.14,1.249,12.207.653a24.218,24.218,0,0,1,1.168,14.778c-.647,2.7-1.765,5.31-1.846,8.09-.122,4.232,2.161,8.1,4.136,11.842a6.3,6.3,0,0,1,.834,2.283,5.5,5.5,0,0,1-.447,2.39c-1.115,3-3.039,5.788-3.258,8.983a1.453,1.453,0,0,0,.234,1.068,1.343,1.343,0,0,0,.806.362c3.373.578,6.291-2.411,7.937-5.413a25.375,25.375,0,0,0,3.13-10.783c.34-6.36-1.94-12.616-1.8-18.982C585.27,75.247,588.54,67.959,586.626,60.978Z" transform="translate(-397.997 -45.367)" fill="#3e373a"/>
    <path id="Path_368" data-name="Path 368" d="M581.79,473.373l12.391.4-1.777-9.19-9.493.9Z" transform="translate(-400.062 -319.458)" fill="#c3c7d9"/>
    <path id="Path_369" data-name="Path 369" d="M666.537,423.8c-.834,1.04-4.061,2.914-4.373,3.539s-4.164,2.5-6.144,2.811-8.224,1.668-9.371,2.4c-.821.525-7.415,2.187-11.748,3.108a33.328,33.328,0,0,1-3.558.64c-1.874.1-22.384-6.872-22.384-6.872l3.955-4.061.219-.075c1.118-.378,6.285-2.124,9.152-2.955,3.23-.937,6.978-4.788,6.978-4.788s5.516-1.874,6.247-2.083-1.874-7.287-1.874-7.287,11.973-1.662,16.658-3.071,15.515-.887,17.492,4.632S667.384,422.756,666.537,423.8Z" transform="translate(-446.414 -291.662)" fill="#4b4b5b"/>
    <path id="Path_370" data-name="Path 370" d="M560.4,498.456s-2.393,2.5-4.789,2.293-10.773.625-10.773.625a16.8,16.8,0,0,0-4.22,2.446c-1.958,1.543-3,.312-3.192.05l-.034-.05c-1.043,3.283-3.436.781-3.436.781s1.04-10,.722-11.245,2.058-3.4,2.058-3.4l2.811-.715,7.122-1.824,10.2,3.539Z" transform="translate(-394.841 -348.727)" fill="#e7c7ca"/>
    <path id="Path_371" data-name="Path 371" d="M539.539,493.26l-2.108,14.625-.034-.05c-1.043,3.283-3.436.781-3.436.781s1.04-10,.722-11.245,2.058-3.4,2.058-3.4Z" transform="translate(-394.841 -352.742)" opacity="0.1"/>
    <path id="Path_372" data-name="Path 372" d="M599,360.08s5.516,1.874,10.308,0" transform="translate(-439.565 -261.163)" opacity="0.1"/>
    <path id="Path_373" data-name="Path 373" d="M659.29,371.42s2.29,1.143,4.061,0" transform="translate(-481.023 -268.961)" opacity="0.1"/>
    <path id="Path_374" data-name="Path 374" d="M659.29,378.945s3.851.515,4.582-.525" transform="translate(-481.023 -273.774)" opacity="0.1"/>
    <path id="Path_375" data-name="Path 375" d="M655.29,393.937s7.234-.937,9.03-2.187" transform="translate(-478.272 -282.94)" opacity="0.1"/>
    <path id="Path_376" data-name="Path 376" d="M584.62,391.75s4.061,2.29,7.081,2.187" transform="translate(-429.677 -282.94)" opacity="0.1"/>
    <path id="Path_377" data-name="Path 377" d="M634.892,481.547a33.35,33.35,0,0,1-3.558.64c-1.874.1-22.384-6.872-22.384-6.872l3.955-4.061.219-.075c.625.44,1.137.818,1.5,1.106,1.721,1.356,3.383-.415,4.008-.415s6.038,4.476,6.038,4.476,5,1.146,5.832,2.187,3.748.834,4.267,1.562A2.787,2.787,0,0,1,634.892,481.547Z" transform="translate(-446.407 -337.559)" opacity="0.1"/>
    <path id="Path_378" data-name="Path 378" d="M501.349,409.612s-5.054.291-7.968-.937-12.6-4.061-15.409-2.071-9.58,3.748-6.456,11.664,4.582,8.121,4.582,8.121a11.277,11.277,0,0,1,2.5,2.593c.937,1.459,9.683,4.788,11.87,4.788s6.038,0,11.451,3.748a23.535,23.535,0,0,0,10.308,4.167s6.872,2.811,9.012,3.436,11.917,3.33,14.209,2.5,3.748-6.041,3.748-6.041,1.04-4.685.518-5.413-3.436-.522-4.267-1.562-5.832-2.187-5.832-2.187-5.4-4.479-6.025-4.479-2.286,1.768-4.008.415a91.433,91.433,0,0,0-10.78-6.872C504.848,419.4,501.349,409.612,501.349,409.612Z" transform="translate(-351.347 -292.681)" fill="#4b4b5b"/>
    <path id="Path_379" data-name="Path 379" d="M536.27,427.154a5.966,5.966,0,0,1,5.12,1.353c2.5,2.083,10.908,6.266,10.908,6.266" transform="translate(-396.429 -307.202)" opacity="0.1"/>
    <path id="Path_380" data-name="Path 380" d="M707.182,427s-11.142,1.687-13.222,3.976" transform="translate(-504.863 -307.179)" opacity="0.1"/>
    <path id="Path_381" data-name="Path 381" d="M714.254,503.038h-.49a83.985,83.985,0,0,0-8.88,0c-1.353.312-19.263,0-19.263,0l3.5-.728s-1.3-4.554-.475-4.932c0,0-4.685-3.086-1.153-5.17a10.96,10.96,0,0,1,7.34-1.206l8.868-3,1.7-.578s10,.522,12.7,7.394S714.254,503.038,714.254,503.038Z" transform="translate(-499.128 -348.727)" fill="#e7c7ca"/>
    <path id="Path_382" data-name="Path 382" d="M754.062,503.072h-.49c2.908-2.4,9.486-9.7-10.061-15.025l1.7-.578s10,.522,12.7,7.394S754.062,503.072,754.062,503.072Z" transform="translate(-538.935 -348.761)" opacity="0.1"/>
    <circle id="Ellipse_19" data-name="Ellipse 19" cx="0.547" cy="0.547" r="0.547" transform="translate(196.203 145.122)" fill="#4b4b5b"/>
    <circle id="Ellipse_20" data-name="Ellipse 20" cx="0.547" cy="0.547" r="0.547" transform="translate(193.026 146.024)" fill="#4b4b5b"/>
    <g id="Group_28" data-name="Group 28" transform="translate(140.638 19.65)" opacity="0.1">
      <path id="Path_383" data-name="Path 383" d="M619.589,117.96A24.236,24.236,0,0,0,617.8,107.92c-4.061.606-8.509-2.527-12.207-.653-2.736,1.387-3.6,4.863-3.748,7.928-.037.809-.044,1.618-.028,2.427,0-.287,0-.578.028-.865.144-3.064,1-6.541,3.748-7.928,3.7-1.874,8.14,1.249,12.207.653A24.171,24.171,0,0,1,619.589,117.96Z" transform="translate(-582.131 -106.552)"/>
      <path id="Path_384" data-name="Path 384" d="M553.188,118.769a10.415,10.415,0,0,0-.041-2.043c-.331-2.749-1.834-5.376-2.105-8.056-.35,3.233,1.709,6.338,2.105,9.618A1.956,1.956,0,0,1,553.188,118.769Z" transform="translate(-547.198 -107.933)"/>
      <path id="Path_385" data-name="Path 385" d="M561.271,210.517c-.194,2.318-.74,4.795-2.5,6.332s-5,1.452-5.976-.653c-.312-.625-.359-1.353-.662-1.977-.693-1.431-2.4-1.987-3.889-2.546-4.233-1.584-8.315-4.685-9.224-9.124a9.577,9.577,0,0,1-.166-1.218,9.848,9.848,0,0,0,.166,2.78c.909,4.426,5,7.54,9.224,9.124,1.49.559,3.2,1.115,3.889,2.546.312.625.365,1.346.662,1.977.984,2.105,4.229,2.187,5.976.653s2.29-4.014,2.5-6.332a35.7,35.7,0,0,0,.1-3.667C561.368,209.12,561.328,209.82,561.271,210.517Z" transform="translate(-538.823 -171.65)"/>
      <path id="Path_386" data-name="Path 386" d="M687.93,122.3v1.353c.175-5.81,2.305-11.651,2.1-17.339C689.863,111.57,688.049,116.949,687.93,122.3Z" transform="translate(-641.355 -106.31)"/>
      <path id="Path_387" data-name="Path 387" d="M655.684,201.518a4.028,4.028,0,0,0,.072-1.128,6.249,6.249,0,0,0-.834-2.283c-1.806-3.436-3.864-6.953-4.108-10.767,0,.162-.022.312-.025.487-.125,4.229,2.158,8.1,4.133,11.842a7.5,7.5,0,0,1,.762,1.849Z" transform="translate(-615.812 -162.029)"/>
      <path id="Path_388" data-name="Path 388" d="M666.925,216.885a25.417,25.417,0,0,1-3.152,10.783c-1.649,3-4.563,5.991-7.94,5.413a1.328,1.328,0,0,1-.806-.365.781.781,0,0,1-.147-.244c-.037.244-.069.49-.087.74a1.44,1.44,0,0,0,.234,1.065,1.328,1.328,0,0,0,.806.365c3.377.578,6.291-2.411,7.94-5.413a25.417,25.417,0,0,0,3.152-10.783c.038-.731.041-1.459.019-2.186C666.938,216.469,666.938,216.675,666.925,216.885Z" transform="translate(-618.554 -181.916)"/>
    </g>
    <path id="Path_389" data-name="Path 389" d="M695.31,510.443s7.906,3.317,13.119-4.023" transform="translate(-505.791 -361.792)" fill="none" stroke="#000" stroke-miterlimit="10" stroke-width="1" opacity="0.1"/>
    <path id="Path_390" data-name="Path 390" d="M700.29,533.661a15.413,15.413,0,0,1,14.681-.137" transform="translate(-509.216 -379.213)" fill="none" stroke="#000" stroke-miterlimit="10" stroke-width="1" opacity="0.1"/>
    <path id="Path_391" data-name="Path 391" d="M561.93,527.753s2.711-6.116,9.952-1.453" transform="translate(-414.074 -374.257)" fill="none" stroke="#000" stroke-miterlimit="10" stroke-width="1" opacity="0.1"/>
    <path id="Path_392" data-name="Path 392" d="M533.79,231.8l5.529-5s21.437-1.406,22.324,5.882c0,0,7.6-8.64,23.583-6.716l6.763,5.385-18.692,8.2-18.164,6.3-13.378-5.988Z" transform="translate(-394.724 -168.748)" opacity="0.1"/>
    <path id="Path_393" data-name="Path 393" d="M533.79,232.8l5.529-5s21.437-1.406,22.324,5.882c0,0,7.6-8.64,23.583-6.716l6.763,5.385-18.692,8.2-18.164,6.3-13.378-5.988Z" transform="translate(-394.724 -169.435)" fill="#d5d6db"/>
    <path id="Path_394" data-name="Path 394" d="M437.38,204.83l2.446,29.259,25.926,1.3-1.125-29.134-.022-.49Z" transform="translate(-300.76 -140.844)" opacity="0.1"/>
    <path id="Path_395" data-name="Path 395" d="M437.38,202.83l2.446,29.259,25.926,1.3-1.125-29.134-.022-.49Z" transform="translate(-300.76 -139.469)" fill="#6c63ff"/>
    <path id="Path_396" data-name="Path 396" d="M576.454,202.83l-26.744,4.011v29.39l26.135-3.776Z" transform="translate(-378.002 -139.469)" opacity="0.1"/>
    <path id="Path_397" data-name="Path 397" d="M576.454,200.83l-26.744,4.011v29.39l26.135-3.776Z" transform="translate(-378.002 -138.093)" fill="#6c63ff"/>
    <path id="Path_398" data-name="Path 398" d="M583.337,223.79,568.89,225.4l.315,4.923,14.122-1.543Z" transform="translate(-391.191 -153.882)" fill="#fff" opacity="0.3"/>
    <path id="Path_399" data-name="Path 399" d="M536.908,332.717l1.471,3.958s2.187,1.874,4.579.937,4.479-1.4,5.519-2.315,2.5-5.494,2.5-5.494,1.459-5,2.914-6.247,5.31-18.464,0-16.78-9.371,17.3-9.371,17.3a3.7,3.7,0,0,1-2.29,1.249c-1.353.106-4.061-.209-4.582.937S535.346,330.427,536.908,332.717Z" transform="translate(-396.436 -224.428)" fill="#be6f72"/>
    <path id="Path_400" data-name="Path 400" d="M621.023,254.775a9,9,0,0,1-7.843-1.955l1.128,29.131a7.95,7.95,0,0,0,6.716,2.218Z" transform="translate(-449.316 -187.406)" opacity="0.1"/>
    <path id="Path_401" data-name="Path 401" d="M621.023,252.775a9,9,0,0,1-7.843-1.955l1.128,29.131a7.95,7.95,0,0,0,6.716,2.218Z" transform="translate(-449.316 -186.031)" fill="#6c63ff"/>
    <path id="Path_402" data-name="Path 402" d="M621.023,252.775a9,9,0,0,1-7.843-1.955l1.128,29.131a7.95,7.95,0,0,0,6.716,2.218Z" transform="translate(-449.316 -186.031)" opacity="0.1"/>
    <path id="Path_403" data-name="Path 403" d="M640.29,240.179s10.88-3.327,13.716-2.858" transform="translate(-467.957 -176.717)" opacity="0.1"/>
    <path id="Path_404" data-name="Path 404" d="M574.237,237.7s-10.545-2.5-12.307-1.79" transform="translate(-414.074 -175.692)" opacity="0.1"/>
    <path id="Path_405" data-name="Path 405" d="M662.25,244.067s7.275-2.668,9.9-1.4" transform="translate(-483.058 -180.19)" opacity="0.1"/>
    <path id="Path_406" data-name="Path 406" d="M650.52,450.083a23.912,23.912,0,0,1,3.586-2.227,58.509,58.509,0,0,0,5.31-3.245" transform="translate(-474.992 -319.289)" opacity="0.1"/>
    <path id="Path_407" data-name="Path 407" d="M543.983,360.08s-4.564,3.733-5.935,4.061-2.218,3.239-2.218,3.239" transform="translate(-396.127 -261.163)" opacity="0.1"/>
    <path id="Path_408" data-name="Path 408" d="M671.975,330.957l-1.456,3.967s-2.187,1.874-4.582.937-4.476-1.4-5.519-2.315-2.5-5.494-2.5-5.494-1.456-5-2.914-6.247-5.31-18.464,0-16.78,9.371,17.3,9.371,17.3a3.7,3.7,0,0,0,2.29,1.249c1.352.106,4.061-.209,4.582.937S673.537,328.677,671.975,330.957Z" transform="translate(-476.206 -223.225)" fill="#be6f72"/>
    <path id="Path_409" data-name="Path 409" d="M707.15,364.94s2.983,1.918,2.971,4.211" transform="translate(-513.933 -264.505)" opacity="0.1"/>
    <circle id="Ellipse_21" data-name="Ellipse 21" cx="13.953" cy="13.953" r="13.953" transform="translate(153.953 16.935)" fill="#be6f72"/>
    <path id="Path_410" data-name="Path 410" d="M582.86,97.916c1.693-.266,3.177-1.249,4.795-1.815,3.62-1.271,7.625-.4,11.289.747a14.64,14.64,0,0,0,4.307.937,4.359,4.359,0,0,0,3.792-1.874A4.237,4.237,0,0,0,607.018,92a11.023,11.023,0,0,0-2.549-3.145c-3.249-3.067-7.278-5.935-11.735-5.622a16.151,16.151,0,0,0-5.157,1.477,56.85,56.85,0,0,0-6.054,3.049c-1.5.871-4.286,2.037-5.151,3.63C574.4,94.973,579.8,98.4,582.86,97.916Z" transform="translate(-423.715 -70.773)" fill="#3e373a"/>
    <path id="Path_411" data-name="Path 411" d="M607.04,114.234a4.36,4.36,0,0,1-3.792,1.874,14.651,14.651,0,0,1-4.311-.918c-3.664-1.146-7.665-2.021-11.289-.747-1.615.565-3.1,1.562-4.795,1.812-2.468.387-6.441-1.762-6.872-4.495-.484,3.158,4.123,5.863,6.872,5.432,1.693-.265,3.18-1.249,4.795-1.812,3.623-1.274,7.625-.4,11.289.747a14.058,14.058,0,0,0,4.311.918,4.393,4.393,0,0,0,3.792-1.874,3.658,3.658,0,0,0,.437-2.283,3.37,3.37,0,0,1-.437,1.346Z" transform="translate(-423.713 -90.408)" opacity="0.1"/>
    <path id="Path_412" data-name="Path 412" d="M1026.779,661.63s1.852,2.421-.856,6.079-4.938,6.744-4.039,9.024c0,0,4.086-6.791,7.409-6.888S1030.43,665.712,1026.779,661.63Z" transform="translate(-730.217 -468.52)" fill="#46ce04"/>
    <path id="Path_413" data-name="Path 413" d="M1027.011,661.63a2.991,2.991,0,0,1,.378.759c3.242,3.811,4.973,7.369,1.852,7.456-2.9.084-6.388,5.279-7.222,6.588a3.059,3.059,0,0,0,.1.312s4.086-6.791,7.409-6.888S1030.663,665.712,1027.011,661.63Z" transform="translate(-730.45 -468.52)" opacity="0.1"/>
    <path id="Path_414" data-name="Path 414" d="M1048.058,670.31c0,.853-.1,1.543-.213,1.543s-.215-.69-.215-1.543.119-.45.237-.45S1048.058,669.458,1048.058,670.31Z" transform="translate(-748.06 -474.115)" fill="#ffd037"/>
    <path id="Path_415" data-name="Path 415" d="M1049.577,673.447c-.746.406-1.4.653-1.456.55s.5-.518,1.25-.937.453-.112.509,0S1050.327,673.038,1049.577,673.447Z" transform="translate(-748.396 -476.233)" fill="#ffd037"/>
    <path id="Path_416" data-name="Path 416" d="M997.514,661.63s-1.852,2.421.856,6.079,4.938,6.744,4.036,9.024c0,0-4.083-6.791-7.409-6.888S993.872,665.712,997.514,661.63Z" transform="translate(-710.742 -468.52)" fill="#46ce04"/>
    <path id="Path_417" data-name="Path 417" d="M997.514,661.63a3,3,0,0,0-.378.759c-3.242,3.811-4.973,7.369-1.852,7.456,2.9.084,6.388,5.279,7.222,6.588a2.4,2.4,0,0,1-.1.312s-4.083-6.791-7.409-6.888S993.872,665.712,997.514,661.63Z" transform="translate(-710.742 -468.52)" opacity="0.1"/>
    <path id="Path_418" data-name="Path 418" d="M995.64,670.31c0,.853.094,1.543.212,1.543s.216-.69.216-1.543-.122-.45-.237-.45S995.64,669.458,995.64,670.31Z" transform="translate(-712.31 -474.115)" fill="#ffd037"/>
    <path id="Path_419" data-name="Path 419" d="M990.859,673.447c.747.406,1.4.653,1.456.55s-.5-.518-1.249-.937-.453-.112-.509,0S990.11,673.038,990.859,673.447Z" transform="translate(-708.71 -476.233)" fill="#ffd037"/>
    <ellipse id="Ellipse_22" data-name="Ellipse 22" cx="19.366" cy="2.971" rx="19.366" ry="2.971" transform="translate(272.3 220.8)" fill="#6c63ff" opacity="0.1"/>
    <path id="Path_420" data-name="Path 420" d="M1010.34,697.041l-.094.756-.131,1.068-.053.447-.131,1.068-.056.447-.128,1.065-1.484,12.151c-.131,1.084-1.9,1.93-4.042,1.93h-7.7c-2.14,0-3.908-.846-4.042-1.93L991,701.892l-.131-1.065-.053-.447-.131-1.068-.056-.447L990.5,697.8l-.094-.756c-.072-.625.884-1.131,2.1-1.131h15.749C1009.456,695.91,1010.415,696.425,1010.34,697.041Z" transform="translate(-708.705 -492.093)" fill="#65617d"/>
    <path id="Path_421" data-name="Path 421" d="M921.88,658.53l-.128,1.068H902.261l-.131-1.068Z" transform="translate(-620.34 -452.826)" fill="#9d9cb5"/>
    <path id="Path_422" data-name="Path 422" d="M922.1,663.38l-.128,1.068H902.851l-.131-1.068Z" transform="translate(-620.746 -456.161)" fill="#9d9cb5"/>
    <path id="Path_423" data-name="Path 423" d="M922.33,668.23,922.2,669.3H903.448l-.128-1.068Z" transform="translate(-621.158 -459.496)" fill="#9d9cb5"/>
  </g>
</svg>
